<?xml version="1.0" encoding="utf-8"?>
<!-- Generator: Adobe Illustrator 19.0.0, SVG Export Plug-In . SVG Version: 6.00 Build 0)  -->
<svg version="1.1" id="OBJECTS" xmlns="http://www.w3.org/2000/svg" xmlns:xlink="http://www.w3.org/1999/xlink" x="0px" y="0px"
	 width="100%" height="100%" viewBox="0 0 340 341.8" style="enable-background:new 0 0 340 341.8;" xml:space="preserve">
<style type="text/css">
	.st0{fill:#E3E4F7;}
	.st1{fill:#EAEBFB;}
	.st2{clip-path:url(#XMLID_164_);fill:#E1E2F5;}
	.st3{fill:#DF7383;}
	.st4{fill:#DFB48F;}
	.st5{fill:#E5BE9C;}
	.st6{fill:#282C3C;}
	.st7{fill:#FFFFFF;}
	.st8{fill:#ECEDFD;}
	.st9{fill:#95B9FC;}
	.st10{fill:#648DD6;}
	.st11{fill:#B57979;stroke:#1D2738;stroke-width:0.4318;stroke-linecap:round;stroke-linejoin:round;stroke-miterlimit:10;}
	.st12{fill:#C9CDEA;}
	.st13{fill:#6D67C6;}
	.st14{fill:none;stroke:#EAEBFB;stroke-width:0.9305;stroke-linecap:round;stroke-linejoin:round;stroke-miterlimit:10;}
	.st15{fill:#93B7FA;}
	.st16{fill:#BAC0DF;}
	.st17{fill:#DBDFFD;}
	.st18{fill:#ADB3D5;}
	.st19{fill:#8B94C8;}
	.st20{opacity:0.23;fill:#C8C8C8;}
	.st21{fill:#8992C6;}
	.st22{fill:none;stroke:#FFFFFF;stroke-width:2.2127;stroke-linecap:round;stroke-linejoin:round;stroke-miterlimit:10;}
	.st23{fill:#583BF9;}
	.st24{fill:#3D415B;}
	.st25{opacity:0.44;fill:#CACACA;}
	.st26{fill:#29323D;}
	.st27{fill:#535975;}
	.st28{fill:#7D6EF4;}
	.st29{fill:#E2B176;}
	.st30{fill:#D1657B;}
	.st31{fill:#583BF7;}
	.st32{opacity:0.44;fill:#C8C8C8;}
	.st33{fill:#2E3343;}
	.st34{fill:none;stroke:#E5BE9C;stroke-width:4.0246;stroke-linejoin:round;stroke-miterlimit:10;}
	.st35{fill:#FAFBFC;}
	.st36{fill:#F4F6F9;}
</style>
<g>
	<g id="XMLID_2_">
		<path id="XMLID_3_" class="st0" d="M340,342.3c0,0-107.3-75.3-254.5-28.6c-81,25.7-82.2,28.1-82.2,28.1L340,342.3L340,342.3z"/>
	</g>
	<g>
		<g>
			<g>
				<g id="XMLID_27_">
					<g id="XMLID_28_">
						<path id="XMLID_29_" class="st1" d="M266.9,268.6c32.6-29.6,27.8-77.3,5.4-89c-22.4-11.7-47.2-6.1-55.4,10.4
							c-8.3,16.5-26.5,22.3-26.5,22.3s-21.9,10.8-52.9,0.5c-31.1-10.2-50.9-5.8-63.4,9.5c-10.1,12.4-15,37.1,4.7,54.2h177.8
							C260.4,274.2,263.8,271.5,266.9,268.6z"/>
					</g>
					<g id="XMLID_30_">
						<defs>
							<path id="XMLID_33_" d="M266.9,268.6c32.6-29.6,27.8-77.3,5.4-89c-22.4-11.7-47.2-6.1-55.4,10.4
								c-8.3,16.5-26.5,22.3-26.5,22.3s-21.9,10.8-52.9,0.5c-31.1-10.2-50.9-5.8-63.4,9.5c-10.1,12.4-15,37.1,4.7,54.2h177.8
								C260.4,274.2,263.8,271.5,266.9,268.6z"/>
						</defs>
						<clipPath id="XMLID_164_">
							<use xlink:href="#XMLID_33_"  style="overflow:visible;"/>
						</clipPath>
						<path id="XMLID_31_" class="st2" d="M175.7,177.3c0,0,77.3,27.6,42.7,56.9c-38.6,32.6-5.7,43.8,16.1,50.8
							c24.1,7.7-178.3-5.5-178.3-5.5l3.4-68.7l21-25.1l64.2-5L175.7,177.3z"/>
					</g>
				</g>
				<g id="XMLID_34_">
					<path id="XMLID_35_" class="st3" d="M177.7,158c0,0-5,1.3-4,6.3l1.4,3.6l26.1-0.5l-5-9.2c-1.5-2.7-4.4-4.2-7.4-3.8l-7.3,0.9
						L177.7,158z"/>
					<g id="XMLID_36_">
						<g id="XMLID_37_">
							<g id="XMLID_38_">
								<path class="st4" d="M184.1,158.5L184.1,158.5c-0.9,0.5-2,0.2-2.5-0.7l-3-5.5l3.3-1.8l3,5.4
									C185.3,156.9,185,158,184.1,158.5z"/>
								<path class="st5" d="M180.6,157.8L180.6,157.8c-2.2,1.2-5,0.4-6.2-1.8l-2.8-5l8-4.4l2.8,5
									C183.6,153.8,182.8,156.6,180.6,157.8z"/>
							</g>
						</g>
						<path class="st6" d="M180.9,151.3c0,0-1.5,0.1-1.9-1.6c-0.4-1.7-2.7-1.3-2.7-1.3l2.2-2.3c0,0,3.4-1.3,3.5,3.4L180.9,151.3z"/>
						<path class="st6" d="M178.9,148.5l-6.1,3.4c-0.8,0.4-1.8,0.4-2.6-0.2c-0.9-0.7-1.3-1.6-0.6-3.4c1-2.7,2-0.7,2-0.7
							s6.4-5.3,7.5-0.3L178.9,148.5z"/>
						<circle class="st5" cx="181.9" cy="150.4" r="1.4"/>
					</g>
					<path class="st7" d="M176.4,156.4l3.2-1.8c0,0,0.6,1.3-1.2,2.2C177,157.5,176.4,156.4,176.4,156.4z"/>
				</g>
				<path class="st8" d="M92.2,133.9c0,0,2.3-2.7,3.8-3.9c2.6-2.2,5.5-6.1,15-3.3c0.7,0.2,1.4,0.5,2.2,0.8c0.8,0.4,3.4,0.4,6.1-1.7
					c4.2-3.3,5.9-5.9,11.6-5.9c6.7-0.1,7.8,8.3,13,10.4c3.3,1.4,12.1,2.7,13.9,3.3L92.2,133.9z"/>
				<g id="XMLID_39_">
					<path class="st9" d="M272.7,262.8c0.5,0.4,5.5-7.7,7.1-18.2c0,0,0.8-5.2-4.3-2.8c0,0,6.2-22.5-7.5-21.4c-2.4,0.2-3.7,0.6-5.1,2
						c-1.9,1.9-3.1,5.1-1.2,9.8c3.9,9.5,7.5,13.3,5.4,18.1C265,255.3,265.5,256.8,272.7,262.8z"/>
					<path class="st10" d="M270.6,277.5c-0.3-0.1-0.4-0.3-0.4-0.6c3.9-15.1,0.6-41,0.1-42.2c-0.2-0.2-0.1-0.5,0.2-0.7
						c0.2-0.1,0.5-0.1,0.7,0.2c0.9,1.3,3.8,28.3,0,42.9C271.1,277.5,270.9,277.6,270.6,277.5z"/>
				</g>
				<path id="XMLID_5_" class="st11" d="M290.2,276.9"/>
				<path id="XMLID_4_" class="st11" d="M28.8,276.9"/>
				<g id="XMLID_41_">
					<path class="st12" d="M178.9,299.8h-11.7c-0.3,0-0.5-0.2-0.5-0.5V287c0-0.3,0.3-0.6,0.6-0.6h11.5c0.3,0,0.6,0.3,0.6,0.6v12.3
						C179.4,299.6,179.2,299.8,178.9,299.8z"/>
					<path class="st13" d="M176,297h3.4v-7.4H176c-2,0-3.6,1.6-3.6,3.6v0.3C172.4,295.3,174,297,176,297z"/>
					<path id="XMLID_42_" class="st13" d="M166.7,297.4c-0.1,0-0.1,0-0.2-0.1c-1.1-0.8-1.7-1.8-1.7-2.9c0-3,3.8-5.8,3.9-5.9
						c0.1-0.1,0.3-0.1,0.4,0.1c0.1,0.1,0.1,0.3-0.1,0.4c0,0-3.7,2.8-3.7,5.5c0,0.9,0.5,1.8,1.4,2.5c0.1,0.1,0.2,0.3,0.1,0.4
						C166.9,297.4,166.8,297.4,166.7,297.4z"/>
				</g>
				<path class="st14" d="M204.9,141.6c0,0,1.2-1.4,1.9-2c1.3-1.1,2.8-3.1,7.6-1.6c0.4,0.1,0.7,0.3,1.1,0.4c0.4,0.2,1.7,0.2,3.1-0.9
					c2.1-1.7,3-3,5.9-3c3.4,0,3.9,4.2,6.6,5.3c1.7,0.7,6.1,1.4,7,1.7L204.9,141.6z"/>
				<g id="XMLID_43_">
					<g id="XMLID_44_">
						<path class="st15" d="M84.4,169.2c1.6-2,2.6-4.5,2.6-7.3c0-6.3-5.1-11.4-11.4-11.4h-8c-6.3,0-11.4,5.1-11.4,11.4
							c0,6.3,5.1,11.4,11.4,11.4h8c1.8,0,3.5-0.4,5.1-1.2l5.7,3.1L84.4,169.2z"/>
					</g>
					<path class="st7" d="M77.5,160.2h-1.2c-0.1-0.3-0.2-0.7-0.4-1l0.9-0.9c0.2-0.2,0.2-0.6,0-0.9l-1-1c-0.2-0.2-0.6-0.2-0.9,0
						l-0.9,0.9c-0.3-0.2-0.6-0.3-1-0.4v-1.2c0-0.3-0.3-0.6-0.6-0.6h-1.5c-0.3,0-0.6,0.3-0.6,0.6v1.2c-0.3,0.1-0.7,0.2-1,0.4
						l-0.9-0.9c-0.2-0.2-0.6-0.2-0.9,0l-1,1c-0.2,0.2-0.2,0.6,0,0.9l0.9,0.9c-0.2,0.3-0.3,0.6-0.4,1h-1.2c-0.3,0-0.6,0.3-0.6,0.6
						v1.5c0,0.3,0.3,0.6,0.6,0.6H67c0.1,0.3,0.2,0.7,0.4,1l-0.9,0.9c-0.2,0.2-0.2,0.6,0,0.9l1,1c0.2,0.2,0.6,0.2,0.9,0l0.9-0.9
						c0.3,0.2,0.6,0.3,1,0.4v1.2c0,0.3,0.3,0.6,0.6,0.6h1.5c0.3,0,0.6-0.3,0.6-0.6v-1.2c0.3-0.1,0.7-0.2,1-0.4l0.9,0.9
						c0.2,0.2,0.6,0.2,0.9,0l1-1c0.2-0.2,0.2-0.6,0-0.9l-0.9-0.9c0.2-0.3,0.3-0.6,0.4-1h1.2c0.3,0,0.6-0.3,0.6-0.6v-1.5
						C78.1,160.5,77.9,160.2,77.5,160.2z M71.6,164.2c-1.4,0-2.6-1.2-2.6-2.6s1.2-2.6,2.6-2.6c1.4,0,2.6,1.2,2.6,2.6
						S73.1,164.2,71.6,164.2z"/>
				</g>
				<g id="XMLID_45_">
					<g id="XMLID_46_">
						<rect x="151.8" y="256.5" class="st12" width="23.4" height="14.7"/>
						<path id="XMLID_47_" class="st16" d="M179.7,271.2h-34.4c-3.1,0-5.6,2.5-5.6,5.6l0,0h45.5l0,0
							C185.3,273.7,182.8,271.2,179.7,271.2z"/>
						<path class="st17" d="M222.8,257.5H107.2c-4.7,0-8.6-3.8-8.6-8.6v-75.8c0-4.7,3.8-8.6,8.6-8.6h115.6c4.7,0,8.6,3.8,8.6,8.6
							v75.8C231.4,253.6,227.6,257.5,222.8,257.5z"/>
						<path class="st12" d="M218,257.5H102.4c-4.7,0-8.6-3.8-8.6-8.6v-75.8c0-4.7,3.8-8.6,8.6-8.6H218c4.7,0,8.6,3.8,8.6,8.6v75.8
							C226.5,253.6,222.7,257.5,218,257.5z"/>
						<rect x="103.3" y="173.4" class="st7" width="114.2" height="72.3"/>
						<rect x="103.3" y="173.4" class="st18" width="1.4" height="72.3"/>
						<path id="XMLID_48_" class="st19" d="M162.2,255.3c-2.1,0-3.9-1.7-3.9-3.9s1.7-3.9,3.9-3.9c2.1,0,3.9,1.7,3.9,3.9
							S164.3,255.3,162.2,255.3z M162.2,248.2c-1.8,0-3.2,1.4-3.2,3.2c0,1.8,1.4,3.2,3.2,3.2c1.8,0,3.2-1.4,3.2-3.2
							C165.3,249.6,163.9,248.2,162.2,248.2z"/>
					</g>
					<polygon id="XMLID_51_" class="st20" points="151.8,257.5 175.2,271.2 175.2,257.5 					"/>
					<g id="XMLID_52_">
						<path class="st8" d="M158.5,198.8h-46.1c-0.9,0-1.7-0.8-1.7-1.7v-13.9c0-0.9,0.8-1.7,1.7-1.7h46.1c0.9,0,1.7,0.8,1.7,1.7v13.9
							C160.2,198,159.4,198.8,158.5,198.8z"/>
						<path id="XMLID_53_" class="st8" d="M144.2,207.5H112c-0.8,0-1.4-0.6-1.4-1.4l0,0c0-0.8,0.6-1.4,1.4-1.4h32.2
							c0.8,0,1.4,0.6,1.4,1.4l0,0C145.6,206.9,145,207.5,144.2,207.5z"/>
						<path id="XMLID_54_" class="st8" d="M133.2,213.7H112c-0.8,0-1.4-0.6-1.4-1.4l0,0c0-0.8,0.6-1.4,1.4-1.4h21.2
							c0.8,0,1.4,0.6,1.4,1.4l0,0C134.6,213.1,134,213.7,133.2,213.7z"/>
						<path id="XMLID_55_" class="st8" d="M133.2,220.3H112c-0.8,0-1.4-0.6-1.4-1.4l0,0c0-0.8,0.6-1.4,1.4-1.4h21.2
							c0.8,0,1.4,0.6,1.4,1.4l0,0C134.6,219.7,134,220.3,133.2,220.3z"/>
						<path class="st8" d="M208.6,237.4h-39.5c-1.1,0-2-0.9-2-2v-51.8c0-1.1,0.9-2,2-2h39.5c1.1,0,2,0.9,2,2v51.8
							C210.6,236.5,209.7,237.4,208.6,237.4z"/>
						<circle class="st15" cx="119.5" cy="190.3" r="5.3"/>
					</g>
					<g id="XMLID_56_">
						<path id="XMLID_57_" class="st21" d="M153.3,188.6h-22.7c-0.2,0-0.3-0.1-0.3-0.3c0-0.2,0.1-0.3,0.3-0.3h22.7
							c0.2,0,0.3,0.1,0.3,0.3C153.6,188.5,153.5,188.6,153.3,188.6z"/>
						<path id="XMLID_58_" class="st21" d="M153.3,192.6h-22.7c-0.2,0-0.3-0.1-0.3-0.3c0-0.2,0.1-0.3,0.3-0.3h22.7
							c0.2,0,0.3,0.1,0.3,0.3C153.6,192.5,153.5,192.6,153.3,192.6z"/>
					</g>
					<line id="XMLID_59_" class="st22" x1="174.1" y1="220.2" x2="191.3" y2="220.2"/>
					<line id="XMLID_60_" class="st22" x1="174.1" y1="226.8" x2="202.8" y2="226.8"/>
					<g id="XMLID_61_">
						<path class="st9" d="M172.9,191.4v18.5c0,1.4,1.1,2.6,2.6,2.6h25.9c1.4,0,2.6-1.1,2.6-2.6v-18.5c0-1.4-1.1-2.6-2.6-2.6h-25.9
							C174.1,188.8,172.9,190,172.9,191.4z"/>
						<circle class="st23" cx="182.2" cy="198" r="5.9"/>
						<path class="st7" d="M172.9,208v1.9c0,1.4,1.1,2.6,2.6,2.6h25.9c1.4,0,2.6-1.1,2.6-2.6V208l-9.2-9.2l-6.3,6.3l-6.3-6.3
							L172.9,208z"/>
					</g>
				</g>
				<g id="XMLID_62_">
					<path class="st23" d="M59,223.4l-0.4,0.1c-1.9,0.6-3.4,2.1-3.6,4l-1.2,17.2c7.1,2.6,15.2-1.9,15.2-1.9l-0.2-15.5
						c0-1.8-0.9-3.5-2.9-3.9l0,0L59,223.4z"/>
					<g id="XMLID_63_">
						<polygon class="st24" points="68.5,248 69.6,252.3 56.4,253 56.9,247.6 						"/>
						<polygon class="st24" points="63.1,250.8 68.5,263.7 70.5,283.2 74.8,281.9 74,263.4 69.3,251.2 						"/>
						<polygon class="st25" points="63.8,252.6 66.7,252.4 64.9,255.1 						"/>
						<polygon class="st24" points="56.5,252.2 55.6,264.3 51.9,284.3 56.5,285.2 61,264.8 62.5,250.9 						"/>
						<g id="XMLID_64_">
							<path class="st26" d="M74.3,283.3l-2.5,0.3l0.4,3.6l7.2-0.8l0,0c-0.1-0.6-0.6-1-1.1-1l-3.7-0.4L74.3,283.3z"/>
							
								<rect id="XMLID_11_" x="72.1" y="286.8" transform="matrix(-0.9936 0.1128 -0.1128 -0.9936 183.3726 563.7475)" class="st12" width="7.2" height="0.6"/>
						</g>
						<g id="XMLID_65_">
							<path class="st26" d="M55.2,284.7l-2.5-0.3l-0.5,3.6l7.2,0.9l0,0c0-0.6-0.3-1.1-0.8-1.3l-3.4-1.3L55.2,284.7z"/>
							
								<rect id="XMLID_10_" x="52.1" y="288.5" transform="matrix(-0.9913 -0.1313 0.1313 -0.9913 72.9519 582.2759)" class="st12" width="7.2" height="0.6"/>
						</g>
						
							<rect x="70.1" y="281.6" transform="matrix(0.9834 -0.1814 0.1814 0.9834 -50.0605 17.9353)" class="st27" width="5.8" height="2"/>
						
							<rect x="51.4" y="282.9" transform="matrix(0.9813 0.1924 -0.1924 0.9813 55.641 -5.1491)" class="st27" width="5.8" height="2"/>
					</g>
					<g id="XMLID_66_">
						<g id="XMLID_67_">
							<polygon class="st4" points="60.2,224.9 63.8,224.8 63.9,216.8 60.2,216.9 							"/>
							<path class="st5" d="M64.7,222.5L64.7,222.5c2.5,0,4.6-2,4.6-4.5l0.1-5.6l-9.1-0.1l-0.1,5.6
								C60.2,220.5,62.2,222.5,64.7,222.5z"/>
							<path class="st6" d="M60.3,216.5l1.3,0c0.4,0,0.6-0.3,0.6-0.7c-0.2-0.9-0.3-2.5,0.3-2.7c0.9-0.3,5.5,1,7.1-0.1
								c2.2-1.6,0.7-4.4-1.3-4.5c-2-0.2-1.7,2.2-4.1,2.1c-2.3-0.1-5.9-1.1-4.4,5.2L60.3,216.5z"/>
						</g>
						<path class="st6" d="M69.5,218.1c0,0-0.4,0-1.2-0.8c-0.8-0.7-2.8-0.8-4,0.3c-1.3,1.1-2.2-2.4-2.2-2.4l-0.7,1.1
							c0,0,0.3,1.7-1.3,1.7c0,0,0.3,5.1,5.4,4.6C65.5,222.7,69.2,222.1,69.5,218.1z"/>
						<circle class="st5" cx="60.1" cy="216.7" r="1.4"/>
					</g>
					<polygon class="st4" points="60.2,223.3 63.2,225.5 63.8,223.3 					"/>
					<polygon class="st28" points="63.2,225.5 60.2,226.6 60.2,223.3 					"/>
					<polygon class="st28" points="63.2,225.5 64.7,226.3 63.8,223.3 					"/>
					<g id="XMLID_68_">
						<g id="XMLID_69_">
							<path class="st12" d="M39.9,233.6v13.8c0,1.3,1,2.3,2.3,2.3h37.4c1.3,0,2.3-1,2.3-2.3v-13.8c0-1.3-1-2.3-2.3-2.3H42.2
								C40.9,231.2,39.9,232.3,39.9,233.6z"/>
						</g>
						<g id="XMLID_70_">
							<path class="st9" d="M39.9,233.6v1.3h42v-1.3c0-1.3-1-2.3-2.3-2.3H42.2C40.9,231.2,39.9,232.3,39.9,233.6z"/>
							<g id="XMLID_71_">
								<circle class="st7" cx="79.9" cy="233.2" r="0.5"/>
								<circle class="st7" cx="77.9" cy="233.2" r="0.5"/>
								<circle class="st7" cx="76" cy="233.2" r="0.5"/>
							</g>
						</g>
						<path class="st7" d="M43.6,243.8h21.6c0.4,0,0.7-0.3,0.7-0.7v-5.4c0-0.4-0.3-0.7-0.7-0.7H43.6c-0.4,0-0.7,0.3-0.7,0.7v5.4
							C42.9,243.5,43.2,243.8,43.6,243.8z"/>
						<g id="XMLID_72_">
							<path class="st7" d="M43.4,246.9h29.3c0.3,0,0.5-0.2,0.5-0.5l0,0c0-0.3-0.2-0.5-0.5-0.5H43.4c-0.3,0-0.5,0.2-0.5,0.5l0,0
								C42.9,246.7,43.2,246.9,43.4,246.9z"/>
						</g>
					</g>
					<g id="XMLID_73_">
						<g id="XMLID_74_">
							<circle class="st29" cx="56.9" cy="249.2" r="2.3"/>
							<path class="st29" d="M54,246.6l1.2,2.1c0.3,0.5,1,0.7,1.6,0.4l0,0c0.5-0.3,0.7-1,0.4-1.6l-1.2-2.1c-0.3-0.5-1-0.7-1.6-0.4h0
								C53.9,245.3,53.7,246,54,246.6z"/>
						</g>
						<path class="st23" d="M53.8,248.1l3.8-1.9l-5.3-10.5l6.8-7.9c0.7-0.9,0.6-2.3-0.3-3l0,0c-0.9-0.7-2.3-0.6-3,0.3l-7.7,9
							c-0.5,0.7-0.6,1.6-0.3,2.3L53.8,248.1z"/>
					</g>
				</g>
				<g id="XMLID_75_">
					<path id="XMLID_76_" class="st7" d="M86.6,221.9l-0.3-1l-0.3,1c-0.3,0.8-1,1.5-1.9,1.9l0,0l0,0c0.9,0.4,1.6,1.1,1.9,1.9l0.3,1
						l0.3-1c0.3-0.8,1-1.5,1.9-1.9l0,0l0,0C87.5,223.4,86.8,222.7,86.6,221.9z"/>
					<path id="XMLID_77_" class="st7" d="M261.6,193.9l-0.6-1.6l-0.6,1.6c-0.5,1.4-1.6,2.5-3.1,3.2l0,0l0,0c1.5,0.7,2.7,1.8,3.1,3.2
						l0.6,1.6l0.6-1.6c0.5-1.4,1.6-2.5,3.1-3.2l0,0l0,0C263.2,196.5,262.1,195.3,261.6,193.9z"/>
				</g>
				<g id="XMLID_78_">
					<g id="XMLID_79_">
						<g id="XMLID_80_">
							<path class="st12" d="M155.8,234l-1.4-2.9c-0.2-0.4-0.6-0.6-1-0.6l-4.6,0.5c-0.7,0.1-1.4-0.3-1.6-1l-0.7-1.7
								c-0.3-0.7,0-1.6,0.7-1.9c0.5-0.3,1-0.5,1-0.6l0.3,0.5c-0.1,0-0.6,0.3-1,0.6c-0.4,0.2-0.6,0.8-0.4,1.2l0.7,1.7
								c0.2,0.4,0.6,0.7,1,0.6l4.6-0.5c0.7-0.1,1.3,0.3,1.6,0.9l1.4,2.9L155.8,234z"/>
							<path class="st13" d="M155.8,221.2l-8.1,3.3c-0.5,0.2-0.7,0.8-0.5,1.3l0.6,1.4c0.2,0.5,0.7,0.7,1.2,0.5l8.2-3.1
								c0.5-0.2,0.8-0.8,0.5-1.3l-0.7-1.6C156.8,221.2,156.3,221,155.8,221.2z"/>
							<path class="st19" d="M155.4,232.5L155.4,232.5c-0.4,0.2-0.6,0.7-0.5,1.1l1.7,5c0.3,0.8,1.2,1.2,2,0.8l0,0
								c0.7-0.4,0.9-1.2,0.5-1.9l-2.6-4.6C156.4,232.5,155.8,232.3,155.4,232.5z"/>
						</g>
						<g id="XMLID_81_">
							<path id="XMLID_82_" class="st30" d="M128.6,268.7l-7.7-8.6c-0.6-0.8-0.7-1.9-0.2-2.7l7-10.1l4.2,2.5l-6.1,8.7l6.7,7.3
								L128.6,268.7z"/>
							<g id="XMLID_83_">
								<g id="XMLID_84_">
									<circle class="st5" cx="157.1" cy="236.4" r="2.2"/>
									<path class="st5" d="M155.6,239.9l1.5-1.8c0.4-0.5,0.3-1.2-0.1-1.6l0,0c-0.5-0.4-1.2-0.3-1.6,0.1l-1.5,1.8
										c-0.4,0.5-0.3,1.2,0.1,1.6l0,0C154.5,240.4,155.2,240.4,155.6,239.9z"/>
								</g>
								<g id="XMLID_85_">
									<g id="XMLID_86_">
										<g id="XMLID_87_">
											<polygon class="st4" points="132.1,246.4 135.9,246.4 135.8,239 131.9,239 											"/>
											<path class="st5" d="M134.9,243.6L134.9,243.6c2.4,0,4.3-2,4.3-4.4l-0.1-5.4l-8.7,0.1l0.1,5.4
												C130.6,241.7,132.5,243.6,134.9,243.6z"/>
											<path class="st6" d="M136.6,236.7l0,4c0,1.6-1.2,2.9-2.7,2.9l-0.8,0c-2.6,0-4.8-2.2-4.8-4.9l0-3.6l8.1-0.1L136.6,236.7z"
												/>
											<path class="st6" d="M136.2,236.2c0,0,2.1,0.1,3.3-0.2c1.6-0.3,2.2-3.5,0.9-4.5c-0.1,0-0.1-0.1-0.2-0.1
												c-1.5-1.1-3.5,1.2-3.4,1.3C136.8,232.8,136.2,236.2,136.2,236.2z"/>
											<path class="st6" d="M138.2,233.5c0,0-3.5-3-7.4-1.1c0,0-1.3,0.3-2.5,2.7l7.6,1.8L138.2,233.5z"/>
											<circle class="st5" cx="136.5" cy="238.8" r="1.3"/>
											<path class="st5" d="M138.7,239.3h0.6c0.3,0,0.6-0.3,0.6-0.6l0,0c0-0.3-0.3-0.6-0.6-0.6h-0.6V239.3z"/>
										</g>
										<path class="st3" d="M136.9,246h-6.2c-3.1,0-4.2,2.6-3.6,5.3l1.2,6.7l0.6,6.3h11.2l1.2-13.8
											C141.1,248,140.2,246,136.9,246z"/>
										<path class="st31" d="M139.9,264.3L144,285l0.1,17.6l-2.9,0.1l-2.6-17.1l-5.4-14.8l0.3,15.1l-4.4,16.7h-3l2.3-16.7
											l-1.8-12.9c0,0-0.5-5.7,2.1-8.8H139.9z"/>
										<rect x="130.2" y="268.7" class="st31" width="5.3" height="4"/>
										<polygon class="st5" points="144.1,302.6 144.2,305 141.5,305 141.2,302.7 										"/>
										<polygon class="st5" points="129.1,302.7 128.6,305.3 125.8,305.2 126.1,302.7 										"/>
										<path class="st32" d="M133.1,272.7h-2.9c0,0,2.6,2.9,3.1,5.8L133.1,272.7z"/>
									</g>
									<path class="st26" d="M144,305h1.7c1,0,2.1,0.3,2.4,1.5l0.1,0.8h-7c0,0-0.5-1.3,0.2-2.3H144z"/>
									<path class="st26" d="M128.3,305h1.7c1,0,2.1,0.3,2.4,1.5l0.1,0.8h-7c0,0-0.5-1.3,0.2-2.3H128.3z"/>
									<path class="st3" d="M136.9,250.9l-0.4-4.9l10.4-0.9l6.5-7.6l3.7,3.2l-7.1,8.4c-0.4,0.5-1,0.8-1.7,0.9L136.9,250.9z"/>
								</g>
							</g>
							<polygon id="XMLID_88_" class="st32" points="141.1,250.6 138.2,250.7 140.6,256.8 							"/>
						</g>
					</g>
					<circle class="st3" cx="128.5" cy="234.4" r="1.8"/>
					<path id="XMLID_89_" class="st33" d="M129,233.6c0,0-3.9-2.5-5.4,2.7c-1.4,4.9,2.5,10.8,3.3,15.2c0.1,0.5,0.5,0.9,1.1,0.9h4.2
						c0.6,0,1.1-0.5,1.1-1.2c-0.1-2.1-1.2-6.1-4.4-11c0,0-3.4-4.6,0.1-5.2C129,235.1,129.8,234.2,129,233.6z"/>
				</g>
				<g id="XMLID_90_">
					<g id="XMLID_91_">
						<path id="XMLID_92_" class="st19" d="M263.9,293c-0.4,0-0.7-0.2-0.8-0.6l-25.7-103.9c-0.1-0.4,0.2-0.8,0.6-0.8
							c0.4-0.1,0.9,0.2,1,0.5l25.7,103.9c0.1,0.4-0.2,0.8-0.6,0.8C264.1,293,264,293,263.9,293z"/>
						<path id="XMLID_93_" class="st19" d="M245.1,293c-0.4,0-0.7-0.2-0.8-0.6l-25.8-103.9c-0.1-0.4,0.2-0.8,0.6-0.8
							c0.4-0.1,0.9,0.2,1,0.5l25.8,103.9c0.1,0.4-0.2,0.8-0.6,0.8C245.2,293,245.2,293,245.1,293z"/>
						<path id="XMLID_94_" class="st19" d="M239.6,194.6h-18.9c-0.4,0-0.8-0.3-0.8-0.7c0-0.4,0.4-0.7,0.8-0.7h18.9
							c0.4,0,0.8,0.3,0.8,0.7C240.4,194.3,240.1,194.6,239.6,194.6z"/>
						<path id="XMLID_95_" class="st19" d="M241.7,202.9h-18.9c-0.4,0-0.8-0.3-0.8-0.7c0-0.4,0.4-0.7,0.8-0.7h18.9
							c0.4,0,0.8,0.3,0.8,0.7C242.5,202.6,242.1,202.9,241.7,202.9z"/>
						<path id="XMLID_96_" class="st19" d="M243.7,211.2h-18.9c-0.4,0-0.8-0.3-0.8-0.7c0-0.4,0.4-0.7,0.8-0.7h18.9
							c0.4,0,0.8,0.3,0.8,0.7C244.5,210.9,244.2,211.2,243.7,211.2z"/>
						<path id="XMLID_97_" class="st19" d="M245.8,219.5h-18.9c-0.4,0-0.8-0.3-0.8-0.7c0-0.4,0.4-0.7,0.8-0.7h18.9
							c0.4,0,0.8,0.3,0.8,0.7C246.6,219.2,246.2,219.5,245.8,219.5z"/>
						<path id="XMLID_98_" class="st19" d="M247.9,227.8h-18.9c-0.4,0-0.8-0.3-0.8-0.7c0-0.4,0.4-0.7,0.8-0.7h18.9
							c0.4,0,0.8,0.3,0.8,0.7C248.7,227.5,248.3,227.8,247.9,227.8z"/>
						<path id="XMLID_99_" class="st19" d="M249.9,236.2H231c-0.4,0-0.8-0.3-0.8-0.7c0-0.4,0.4-0.7,0.8-0.7h18.9
							c0.4,0,0.8,0.3,0.8,0.7C250.7,235.8,250.4,236.2,249.9,236.2z"/>
						<path id="XMLID_100_" class="st19" d="M252,244.5H233c-0.4,0-0.8-0.3-0.8-0.7c0-0.4,0.4-0.7,0.8-0.7H252
							c0.4,0,0.8,0.3,0.8,0.7C252.8,244.1,252.4,244.5,252,244.5z"/>
						<path id="XMLID_101_" class="st19" d="M254,252.8h-18.9c-0.4,0-0.8-0.3-0.8-0.7c0-0.4,0.4-0.7,0.8-0.7H254
							c0.4,0,0.8,0.3,0.8,0.7C254.9,252.5,254.5,252.8,254,252.8z"/>
						<path id="XMLID_102_" class="st19" d="M256.1,261.1h-18.9c-0.4,0-0.8-0.3-0.8-0.7c0-0.4,0.4-0.7,0.8-0.7h18.9
							c0.4,0,0.8,0.3,0.8,0.7C256.9,260.8,256.5,261.1,256.1,261.1z"/>
						<path id="XMLID_103_" class="st19" d="M258.2,269.4h-18.9c-0.4,0-0.8-0.3-0.8-0.7c0-0.4,0.4-0.7,0.8-0.7h18.9
							c0.4,0,0.8,0.3,0.8,0.7C259,269.1,258.6,269.4,258.2,269.4z"/>
						<path id="XMLID_104_" class="st19" d="M260.2,277.7h-18.9c-0.4,0-0.8-0.3-0.8-0.7s0.4-0.7,0.8-0.7h18.9c0.4,0,0.8,0.3,0.8,0.7
							S260.7,277.7,260.2,277.7z"/>
					</g>
					<g id="XMLID_105_">
						<path class="st26" d="M233.8,246.8l3.2-0.6l1.4,5.2l-9.1,0.6l-0.1-0.7c-0.1-0.7,0.3-1.4,1-1.7l4.3-0.8L233.8,246.8z"/>
						<g id="XMLID_106_">
							<g id="XMLID_107_">
								<polygon class="st4" points="246.2,203.2 242.3,203.2 242.3,194.9 246.1,194.9 								"/>
								<path class="st5" d="M241.4,200.8L241.4,200.8c-2.6,0-4.7-2.1-4.7-4.7l-0.1-5.8l9.4-0.1l0.1,5.8
									C246.1,198.7,244,200.8,241.4,200.8z"/>
								<path class="st6" d="M246,194.5l-1.3,0c-0.4,0-0.6-0.3-0.6-0.7c0.2-1,0.3-2.6-0.3-2.8c-0.9-0.3-5.7,1.1-7.3-0.1
									c-2.3-1.7-0.7-4.5,1.3-4.7c2.1-0.2,1.8,2.2,4.2,2.2c2.4-0.1,6.1-1.1,4.6,5.3L246,194.5z"/>
							</g>
							<circle class="st5" cx="246.2" cy="194.8" r="1.5"/>
						</g>
						<g id="XMLID_108_">
							<path class="st26" d="M252.5,255.9l3.2-0.4l1.6,5.5l-9.1,0.2l-0.1-0.7c0-0.7,0.4-1.4,1.1-1.6l4.1-0.6L252.5,255.9z"/>
							<path id="XMLID_109_" class="st24" d="M238.4,221.9l-9.1,2.8c-1.6,0.3-2.6,1.9-2.2,3.5l5.7,19.3l5.5-0.6l-4.9-17.7l13.5-2.9
								c2-0.2,3.5-1.8,3.5-3.8v-0.6H238.4z"/>
							<polygon id="XMLID_110_" class="st24" points="248.3,224.2 250.4,237.7 256.5,256.6 251.7,256.9 245,238.2 241,224.2 							
								"/>
						</g>
						<path id="XMLID_111_" class="st23" d="M242,202.3L242,202.3c-2.6,0-4.7,2.4-4.7,5.3l1.1,14.2l13.1,0.6l-1.1-15.2
							c0-2.7-1.9-4.9-4.4-4.9L242,202.3z"/>
						<path class="st7" d="M237.8,197.2l3.4,0c0,0-0.1,1.4-2,1.3C237.8,198.4,237.8,197.2,237.8,197.2z"/>
					</g>
					<g id="XMLID_112_">
						<g id="XMLID_113_">
							<circle class="st5" cx="212.1" cy="206.9" r="2.7"/>
						</g>
						<polyline id="XMLID_114_" class="st34" points="243.1,206.4 230.4,211.9 212.6,206.9 						"/>
						<path id="XMLID_115_" class="st28" d="M235,206l3.1,6.5l5.6-3.1c1.5-0.8,2-2.8,1.1-4.2l0,0c-0.7-1.2-2.3-1.8-3.6-1.3L235,206z
							"/>
					</g>
					<g id="XMLID_116_">
						<path id="XMLID_117_" class="st6" d="M237.3,196.1c-1,0-1.8-0.8-1.8-1.8s0.8-1.8,1.8-1.8c1,0,1.8,0.8,1.8,1.8
							S238.3,196.1,237.3,196.1z M237.3,193c-0.7,0-1.3,0.6-1.3,1.3c0,0.7,0.6,1.3,1.3,1.3c0.7,0,1.3-0.6,1.3-1.3
							C238.6,193.6,238,193,237.3,193z"/>
						<path id="XMLID_120_" class="st6" d="M241.1,196.1c-1,0-1.8-0.8-1.8-1.8s0.8-1.8,1.8-1.8c1,0,1.8,0.8,1.8,1.8
							S242.1,196.1,241.1,196.1z M241.1,193c-0.7,0-1.3,0.6-1.3,1.3c0,0.7,0.6,1.3,1.3,1.3c0.7,0,1.3-0.6,1.3-1.3
							C242.4,193.6,241.9,193,241.1,193z"/>
						<rect id="XMLID_123_" x="238.7" y="193.4" class="st6" width="0.9" height="0.5"/>
						<rect id="XMLID_124_" x="242.4" y="193.8" class="st6" width="1.5" height="0.5"/>
					</g>
				</g>
				<path id="XMLID_125_" class="st5" d="M170.9,164.6c0,0-0.6-2-3.9-1.9c-3.3,0.2-4.4,2.3-3.3,3.6c1.1,1.3,3.9,0.4,5.7-1.8
					L170.9,164.6z"/>
				<path id="XMLID_126_" class="st5" d="M193.8,164.6c0,0-0.6-2-3.9-1.9c-3.3,0.2-4.4,2.3-3.3,3.6c1.1,1.3,3.9,0.4,5.7-1.8
					L193.8,164.6z"/>
			</g>
		</g>
	</g>
</g>
<path id="XMLID_147_" class="st35" d="M340,123.2c-28.2-30.8-61-28.4-77.9-19c-43,23.9-92.4-49.8-28.7-61.4S340,38.4,340,38.4
	S340,78.8,340,123.2z"/>
<circle id="XMLID_146_" class="st36" cx="51.3" cy="57.9" r="41.5"/>
</svg>
