<?xml version="1.0" encoding="utf-8"?>
<!-- Generator: Adobe Illustrator 19.0.0, SVG Export Plug-In . SVG Version: 6.00 Build 0)  -->
<svg version="1.1" id="Ñëîé_1" xmlns="http://www.w3.org/2000/svg" xmlns:xlink="http://www.w3.org/1999/xlink" x="0px" y="0px"
	 width="100%" height="100%" viewBox="0 0 368.7 352.7" style="enable-background:new 0 0 368.7 352.7;" xml:space="preserve"
	>
<style type="text/css">
	.st0{fill:url(#SVGID_1_);}
	.st1{fill:url(#SVGID_2_);}
	.st2{fill:url(#SVGID_3_);}
	.st3{fill:url(#SVGID_4_);}
	.st4{fill:url(#SVGID_5_);}
	.st5{fill:url(#SVGID_6_);}
	.st6{fill:#24126A;}
	.st7{opacity:0.51;}
	.st8{fill:#453C9E;}
	.st9{fill:url(#SVGID_8_);}
	.st10{fill:url(#SVGID_9_);}
	.st11{fill:#FFFFFF;}
	.st12{fill:#2842A2;}
	.st13{fill:#ADB1F2;}
	.st14{fill:#9198DB;}
	.st15{fill:url(#SVGID_10_);}
	.st16{opacity:0.11;}
	.st17{clip-path:url(#SVGID_11_);}
	.st18{fill:url(#SVGID_12_);}
	.st19{fill:url(#SVGID_13_);}
	.st20{fill:#42E8E0;}
	.st21{fill:url(#SVGID_14_);}
	.st22{fill:url(#SVGID_15_);}
	.st23{fill:url(#SVGID_16_);}
	.st24{fill:url(#SVGID_17_);}
	.st25{fill:url(#SVGID_18_);}
	.st26{fill:url(#SVGID_19_);}
	.st27{fill:url(#SVGID_20_);}
	.st28{fill:url(#SVGID_21_);}
	.st29{fill:url(#SVGID_22_);}
	.st30{fill:#160A5B;}
	.st31{fill:url(#SVGID_23_);}
	.st32{fill:url(#SVGID_24_);}
	.st33{fill:#F0F6FF;}
	.st34{fill:#FCD1C5;}
	.st35{fill:#4846A5;}
	.st36{fill:#AA8383;}
	.st37{fill:#C4CCD6;}
	.st38{fill:#E2B1A6;}
	.st39{fill:url(#SVGID_25_);}
	.st40{fill:#936D6D;}
	.st41{fill:url(#SVGID_26_);}
	.st42{fill:url(#SVGID_27_);}
	.st43{fill:url(#SVGID_28_);}
	.st44{fill:#5761D7;}
	.st45{opacity:0.3;fill:#4846A5;}
	.st46{opacity:0.1;fill:#4846A5;}
	.st47{fill:url(#SVGID_29_);}
	.st48{fill:url(#SVGID_30_);}
	.st49{fill:url(#SVGID_31_);}
	.st50{opacity:0.5;fill:#FFFFFF;}
	.st51{fill:#0F054C;}
	.st52{opacity:0.5;fill:url(#SVGID_32_);}
	.st53{opacity:0.5;fill:url(#SVGID_33_);}
	.st54{opacity:0.5;fill:url(#SVGID_34_);}
	.st55{opacity:0.5;fill:url(#SVGID_35_);}
	.st56{opacity:0.5;fill:url(#SVGID_36_);}
	.st57{opacity:0.5;fill:url(#SVGID_37_);}
</style>
<g>

		<linearGradient id="SVGID_1_" gradientUnits="userSpaceOnUse" x1="-852.1588" y1="255.1811" x2="-801.0964" y2="255.1811" gradientTransform="matrix(0.866 0.5 -1 0.5774 1105.3302 392.2666)">
		<stop  offset="0" style="stop-color:#42E8E0"/>
		<stop  offset="0.1507" style="stop-color:#43E3E0"/>
		<stop  offset="0.3285" style="stop-color:#45D5DF"/>
		<stop  offset="0.5199" style="stop-color:#49BDDD"/>
		<stop  offset="0.7209" style="stop-color:#4E9CDB"/>
		<stop  offset="0.9274" style="stop-color:#5472D8"/>
		<stop  offset="1" style="stop-color:#5761D7"/>
	</linearGradient>
	<path class="st0" d="M155.5,139.5c-0.2,0-0.3,0-0.5-0.1l-42.4-24.5c-0.4-0.3-0.6-0.8-0.3-1.3c0.3-0.4,0.8-0.6,1.3-0.3l42.4,24.5
		c0.4,0.3,0.6,0.8,0.3,1.3C156.1,139.3,155.8,139.5,155.5,139.5z"/>

		<linearGradient id="SVGID_2_" gradientUnits="userSpaceOnUse" x1="301.6635" y1="2031.5769" x2="376.9955" y2="2031.5769" gradientTransform="matrix(1 0 0 -1 -298.1047 2186.1111)">
		<stop  offset="0" style="stop-color:#42E8E0"/>
		<stop  offset="0.1507" style="stop-color:#43E3E0"/>
		<stop  offset="0.3285" style="stop-color:#45D5DF"/>
		<stop  offset="0.5199" style="stop-color:#49BDDD"/>
		<stop  offset="0.7209" style="stop-color:#4E9CDB"/>
		<stop  offset="0.9274" style="stop-color:#5472D8"/>
		<stop  offset="1" style="stop-color:#5761D7"/>
	</linearGradient>
	<path class="st1" d="M77.9,195.1c-0.2,0-0.3,0-0.5-0.1L4.1,152.3c-0.3-0.2-0.5-0.5-0.5-0.9c0-0.4,0.2-0.7,0.5-0.9l67.2-36.5
		c0.5-0.3,1.1-0.1,1.4,0.4c0.3,0.5,0.1,1.1-0.4,1.4L6.6,151.5l71.8,41.8c0.5,0.3,0.6,0.9,0.4,1.4C78.6,194.9,78.2,195.1,77.9,195.1z
		"/>
	<g>

			<linearGradient id="SVGID_3_" gradientUnits="userSpaceOnUse" x1="426.7039" y1="403.4734" x2="426.7039" y2="355.8163" gradientTransform="matrix(-0.866 -0.5 0 1.1547 576.7318 -161.6995)">
			<stop  offset="0" style="stop-color:#C0BFF6"/>
			<stop  offset="0.2938" style="stop-color:#C5C4F7"/>
			<stop  offset="0.6399" style="stop-color:#D3D2F9"/>
			<stop  offset="1" style="stop-color:#E9E9FD"/>
		</linearGradient>
		<path class="st2" d="M167.5,67.9l79.5,45.9c2.2,1.3,3.9-0.1,3.9-3V66.3c0-2.9-1.8-6.3-3.9-7.5l-79.5-45.9c-2.2-1.3-3.9,0.1-3.9,3
			v44.5C163.5,63.3,165.3,66.6,167.5,67.9z"/>
		<g>
			<g>
				<g>
					<g>
						<g>
							<g>

									<linearGradient id="SVGID_4_" gradientUnits="userSpaceOnUse" x1="239.7442" y1="188.142" x2="438.1117" y2="188.142" gradientTransform="matrix(-1 0 0 1 558.2191 0)">
									<stop  offset="0" style="stop-color:#42E8E0"/>
									<stop  offset="0.1507" style="stop-color:#43E3E0"/>
									<stop  offset="0.3285" style="stop-color:#45D5DF"/>
									<stop  offset="0.5199" style="stop-color:#49BDDD"/>
									<stop  offset="0.7209" style="stop-color:#4E9CDB"/>
									<stop  offset="0.9274" style="stop-color:#5472D8"/>
									<stop  offset="1" style="stop-color:#5761D7"/>
								</linearGradient>
								<path class="st3" d="M238.4,244.6l-116.9-67.5c-0.9-0.5-1.4-1.4-1.4-2.4c0-1,0.5-1.9,1.4-2.4l72.6-41.9l0.6-0.3l122.4,70.7
									c0.9,0.5,1.4,1.4,1.4,2.4c0,1-0.5,1.9-1.4,2.4l-67.7,39.1c-1.7,1-3.6,1.5-5.5,1.5C242,246.1,240.1,245.6,238.4,244.6z
									 M122.6,174.4c-0.2,0.1-0.2,0.3-0.2,0.4c0,0.1,0,0.3,0.2,0.4l116.9,67.5c2.7,1.6,6.1,1.6,8.8,0l67.7-39.1
									c0.2-0.1,0.2-0.3,0.2-0.4c0-0.1,0-0.3-0.2-0.4l-121.3-70L122.6,174.4z"/>
							</g>
							<g>
								<g>

										<linearGradient id="SVGID_5_" gradientUnits="userSpaceOnUse" x1="213.3573" y1="92.9246" x2="363.7222" y2="92.9246" gradientTransform="matrix(-1 0 0 1 558.2191 0)">
										<stop  offset="0" style="stop-color:#C0BFF6"/>
										<stop  offset="0.2938" style="stop-color:#C5C4F7"/>
										<stop  offset="0.6399" style="stop-color:#D3D2F9"/>
										<stop  offset="1" style="stop-color:#E9E9FD"/>
									</linearGradient>
									<path class="st4" d="M194.5,102.3l16.3-96.6l-1.3-0.6l2-1.1l0,0c0.4-0.3,0.9-0.2,1.5,0.1l130.2,75.1
										c1.1,0.6,1.9,2.2,1.7,3.3l-16.4,97.4c-0.1,0.5-0.3,0.8-0.7,1l0,0l-1.9,1.1l-0.3-1.8l0.1,0l-129.4-74.7
										C195.1,105,194.3,103.4,194.5,102.3z"/>

										<linearGradient id="SVGID_6_" gradientUnits="userSpaceOnUse" x1="213.3583" y1="131.4864" x2="239.1774" y2="131.4864" gradientTransform="matrix(-1 0 0 1 558.2191 0)">
										<stop  offset="0" style="stop-color:#5761D7"/>
										<stop  offset="0.1779" style="stop-color:#5C66D9"/>
										<stop  offset="0.3876" style="stop-color:#6A73DF"/>
										<stop  offset="0.6134" style="stop-color:#8289E8"/>
										<stop  offset="0.849" style="stop-color:#A3A7F5"/>
										<stop  offset="1" style="stop-color:#BCBEFF"/>
									</linearGradient>
									<path class="st5" d="M342.4,81.9l2.1-0.9c0.2,0.5,0.4,1.1,0.3,1.6l-16.4,97.4c-0.1,0.5-0.3,0.8-0.7,1l0,0l-1.9,1.1
										l-0.3-1.8l0.1,0l-6.5-3.8L342.4,81.9z"/>
									<path class="st6" d="M194.2,106.8l130.2,75.1c1,0.6,1.9,0.2,2-0.8l16.4-97.4c0.2-1.1-0.6-2.7-1.7-3.3L210.9,5.3
										c-1-0.6-1.9-0.2-2,0.8l-16.4,97.4C192.3,104.6,193.1,106.1,194.2,106.8z"/>
									<g class="st7">
										<polygon class="st8" points="212.6,11.5 338.1,83.9 322.5,175.6 197.2,103.2 										"/>
									</g>
								</g>
								<g>

										<linearGradient id="SVGID_8_" gradientUnits="userSpaceOnUse" x1="233.5027" y1="174.8343" x2="445.8671" y2="174.8343" gradientTransform="matrix(-1 0 0 1 558.2191 0)">
										<stop  offset="0" style="stop-color:#5761D7"/>
										<stop  offset="0.1779" style="stop-color:#5C66D9"/>
										<stop  offset="0.3876" style="stop-color:#6A73DF"/>
										<stop  offset="0.6134" style="stop-color:#8289E8"/>
										<stop  offset="0.849" style="stop-color:#A3A7F5"/>
										<stop  offset="1" style="stop-color:#BCBEFF"/>
									</linearGradient>
									<path class="st9" d="M112.4,152.9l7.1,3.7l71.2-41.1c1.2-0.7,3.3-0.6,4.6,0.2l122.8,70.9c1.2-0.7,6.5-3.2,6.5-3.2l-2.6,6.8
										c0,0,0,0,0,0c-0.1,0.3-0.3,0.6-0.7,0.8l-75,43.3c-1.2,0.7-3.3,0.6-4.6-0.2L116,161.4c-0.6-0.3-0.9-0.7-1.1-1.1l0,0
										L112.4,152.9z"/>

										<linearGradient id="SVGID_9_" gradientUnits="userSpaceOnUse" x1="304.8579" y1="167.7533" x2="517.3354" y2="167.7533" gradientTransform="matrix(-1 0 0 1 558.2191 0)">
										<stop  offset="0" style="stop-color:#C0BFF6"/>
										<stop  offset="0.2938" style="stop-color:#C5C4F7"/>
										<stop  offset="0.6399" style="stop-color:#D3D2F9"/>
										<stop  offset="1" style="stop-color:#E9E9FD"/>
									</linearGradient>
									<path class="st10" d="M113.5,154l128.8,74.4c1.4,0.8,3.5,0.9,4.8,0.2l76.9-44.4c1.2-0.7,1.1-1.9-0.3-2.8l-128.8-74.4
										c-1.4-0.8-3.5-0.9-4.8-0.2l-76.9,44.4C111.9,152,112,153.2,113.5,154z"/>
									<path class="st11" d="M113.5,153.3l128.8,74.4c1.4,0.8,3.5,0.9,4.8,0.2l76.9-44.4c0.4-0.2,0.6-0.5,0.7-0.8
										c0.2,0.6,0,1.2-0.7,1.6l-76.9,44.4c-1.2,0.7-3.4,0.6-4.8-0.2L113.5,154c-0.9-0.5-1.3-1.3-1.1-1.9
										C112.5,152.5,112.9,152.9,113.5,153.3z"/>
									<path class="st12" d="M281.2,212.3v-1.4c0-0.1-0.1-0.2-0.2-0.1l-5,2.9c-0.1,0.1-0.2,0.2-0.2,0.3v1.4c0,0.1,0.1,0.2,0.2,0.1
										l5-2.9C281.1,212.6,281.2,212.5,281.2,212.3z"/>
									<path class="st12" d="M273.7,216.6v-1.4c0-0.1-0.1-0.2-0.2-0.1l-5,2.9c-0.1,0.1-0.2,0.2-0.2,0.3v1.4c0,0.1,0.1,0.2,0.2,0.1
										l5-2.9C273.6,216.9,273.7,216.8,273.7,216.6z"/>
									<path class="st13" d="M303.9,180.1l-107.1-61.8c-0.7-0.4-1.6-0.4-2.3,0l-38.1,22.1c-0.5,0.3-0.5,1.1,0,1.4l107,61.8
										c0.7,0.4,1.6,0.4,2.3,0l38.2-22C304.4,181.2,304.4,180.4,303.9,180.1z"/>
									<path class="st14" d="M303.9,181.5l-0.4,0.2l-106.7-61.6c-0.7-0.4-1.6-0.4-2.3,0L156.8,142l-0.4-0.2
										c-0.5-0.3-0.5-1.1,0-1.4l38.1-22.1c0.7-0.4,1.6-0.4,2.3,0l107.1,61.8C304.4,180.4,304.4,181.2,303.9,181.5z"/>
									<g>
										<polygon class="st6" points="191.6,123.8 284.6,177.5 288.8,175.1 195.8,121.5 										"/>
										<polygon class="st6" points="181.5,129.7 268.7,180.1 272.9,177.7 185.6,127.3 										"/>
										<polygon class="st6" points="174.9,133.5 277.6,192.8 281.7,190.4 179,131.1 										"/>
										<polygon class="st6" points="168.3,137.3 271,196.6 275.1,194.2 172.4,134.9 										"/>
										<polygon class="st6" points="161.7,141.1 264.4,200.4 268.5,198 165.8,138.7 										"/>
										<polygon class="st6" points="290.3,180.8 294.4,183.2 298.5,180.8 294.4,178.4 										"/>
										<polygon class="st6" points="275.7,184.1 284.3,189 288.4,186.6 279.8,181.7 										"/>
									</g>

										<linearGradient id="SVGID_10_" gradientUnits="userSpaceOnUse" x1="340.8407" y1="179.8153" x2="395.229" y2="179.8153" gradientTransform="matrix(-1 0 0 1 558.2191 0)">
										<stop  offset="0" style="stop-color:#C0BFF6"/>
										<stop  offset="0.2938" style="stop-color:#C5C4F7"/>
										<stop  offset="0.6399" style="stop-color:#D3D2F9"/>
										<stop  offset="1" style="stop-color:#E9E9FD"/>
									</linearGradient>
									<path class="st15" d="M192.7,195l-28.9-16.7c-1.1-0.7-1.1-1.7,0-2.4l19.7-11.4c1.1-0.7,3-0.7,4.1,0l28.9,16.7
										c1.1,0.7,1.1,1.7,0,2.4L196.8,195C195.7,195.7,193.8,195.7,192.7,195z"/>
									<path class="st14" d="M216.5,182.2l-28.9-16.7c-1.1-0.7-3-0.7-4.1,0L163.8,177c-0.3,0.2-0.6,0.4-0.7,0.7
										c-0.3-0.6-0.1-1.2,0.7-1.7l19.7-11.4c1.1-0.7,3-0.7,4.1,0l28.9,16.7c0.8,0.5,1,1.1,0.7,1.7
										C217.1,182.7,216.9,182.4,216.5,182.2z"/>
								</g>
							</g>
							<g class="st16">
								<defs>
									<polygon id="SVGID_7_" class="st16" points="212.6,11.5 338.1,83.9 322.5,175.6 197.2,103.2 									"/>
								</defs>
								<clipPath id="SVGID_11_">
									<use xlink:href="#SVGID_7_"  style="overflow:visible;"/>
								</clipPath>
								<g class="st17">

										<linearGradient id="SVGID_12_" gradientUnits="userSpaceOnUse" x1="223.6793" y1="120.6583" x2="436.1568" y2="120.6583" gradientTransform="matrix(-1 0 0 1 558.2191 0)">
										<stop  offset="0" style="stop-color:#C0BFF6"/>
										<stop  offset="0.2938" style="stop-color:#C5C4F7"/>
										<stop  offset="0.6399" style="stop-color:#D3D2F9"/>
										<stop  offset="1" style="stop-color:#E9E9FD"/>
									</linearGradient>
									<path class="st18" d="M194.6,106.9l128.8,74.4c1.4,0.8,3.5,0.9,4.8,0.2l76.9-44.4c1.2-0.7,1.1-1.9-0.3-2.8L275.9,60
										c-1.4-0.8-3.5-0.9-4.8-0.2l-76.9,44.4C193.1,104.9,193.2,106.1,194.6,106.9z"/>

										<linearGradient id="SVGID_13_" gradientUnits="userSpaceOnUse" x1="209.6947" y1="105.061" x2="264.083" y2="105.061" gradientTransform="matrix(-1 0 0 1 558.2191 0)">
										<stop  offset="0" style="stop-color:#C0BFF6"/>
										<stop  offset="0.2938" style="stop-color:#C5C4F7"/>
										<stop  offset="0.6399" style="stop-color:#D3D2F9"/>
										<stop  offset="1" style="stop-color:#E9E9FD"/>
									</linearGradient>
									<path class="st19" d="M323.9,120.3L295,103.6c-1.1-0.7-1.1-1.7,0-2.4l19.7-11.4c1.1-0.7,3-0.7,4.1,0l28.9,16.7
										c1.1,0.7,1.1,1.7,0,2.4l-19.7,11.4C326.8,120.9,325,120.9,323.9,120.3z"/>
									<path class="st14" d="M347.7,107.5l-28.9-16.7c-1.1-0.7-3-0.7-4.1,0L295,102.2c-0.3,0.2-0.6,0.4-0.7,0.7
										c-0.3-0.6-0.1-1.2,0.7-1.7l19.7-11.4c1.1-0.7,3-0.7,4.1,0l28.9,16.7c0.8,0.5,1,1.1,0.7,1.7
										C348.3,107.9,348,107.7,347.7,107.5z"/>
									<g>
										<path class="st13" d="M360.4,146.3L253.3,84.5c-0.7-0.4-1.6-0.4-2.3,0l-38.1,22.1c-0.5,0.3-0.5,1.1,0,1.4l107,61.8
											c0.7,0.4,1.6,0.4,2.3,0l38.2-22C360.9,147.4,360.9,146.6,360.4,146.3z"/>
										<path class="st14" d="M360.4,147.7L360,148L253.3,86.4c-0.7-0.4-1.6-0.4-2.3,0l-37.7,21.8l-0.4-0.2
											c-0.5-0.3-0.5-1.1,0-1.4L251,84.5c0.7-0.4,1.6-0.4,2.3,0l107.1,61.8C360.9,146.6,360.9,147.4,360.4,147.7z"/>
										<g>
											<polygon class="st6" points="222.8,105.1 316.1,158.9 312.4,161 219.2,107.2 											"/>
											<polygon class="st6" points="232.7,99.4 321.3,150.6 317.6,152.7 229,101.5 											"/>
											<polygon class="st6" points="328,154.4 336.2,159.2 332.5,161.3 324.3,156.5 											"/>
											<polygon class="st6" points="320.6,161.5 326.4,164.8 322.7,167 316.9,163.7 											"/>
											<polygon class="st6" points="238.8,95.8 342.4,155.6 338.7,157.8 235.1,98 											"/>
											<polygon class="st6" points="245,92.3 348.5,152.1 344.9,154.2 241.3,94.4 											"/>
											<polygon class="st6" points="251.2,88.7 354.7,148.5 351,150.6 247.5,90.9 											"/>
										</g>
									</g>
								</g>
							</g>
						</g>
					</g>
				</g>
				<g>
					<g>
						<polygon class="st20" points="326.5,89.3 329,90.9 329.3,89.1 326.8,87.5 						"/>
						<polygon class="st20" points="324.5,101.8 327,103.3 328.7,92.6 326.2,91 						"/>
						<polygon class="st20" points="323.5,107.7 326,109.3 326.7,105 324.2,103.4 						"/>
						<polygon class="st20" points="322.5,113.9 325,115.4 325.7,111.2 323.2,109.6 						"/>
						<polygon class="st20" points="321.8,92.9 324.3,94.5 325,90.2 322.5,88.7 						"/>
						<polygon class="st20" points="320.5,101.1 323,102.7 324,96.4 321.5,94.8 						"/>
						<polygon class="st20" points="319.3,108.6 321.8,110.2 322.6,104.8 320.2,103.2 						"/>
						<polygon class="st20" points="321.5,120 324,121.6 324.7,117.3 322.2,115.7 						"/>
						<polygon class="st20" points="322.8,87 325.3,88.6 325.6,86.7 323.1,85.1 						"/>
					</g>
					<polygon class="st20" points="318.7,124.8 323,127.6 323.3,125.8 319,123 					"/>
				</g>
			</g>
			<g>
				<g>

						<linearGradient id="SVGID_14_" gradientUnits="userSpaceOnUse" x1="364.4252" y1="225.014" x2="494.0844" y2="225.014" gradientTransform="matrix(-1 0 0 1 558.2191 0)">
						<stop  offset="0" style="stop-color:#42E8E0"/>
						<stop  offset="0.1507" style="stop-color:#43E3E0"/>
						<stop  offset="0.3285" style="stop-color:#45D5DF"/>
						<stop  offset="0.5199" style="stop-color:#49BDDD"/>
						<stop  offset="0.7209" style="stop-color:#4E9CDB"/>
						<stop  offset="0.9274" style="stop-color:#5472D8"/>
						<stop  offset="1" style="stop-color:#5761D7"/>
					</linearGradient>
					<path class="st21" d="M166,262.3L166,262.3L65.4,204.2c-0.8-0.5-1.2-1.2-1.2-1.9c0-0.9,0.6-1.7,1.6-2.3l20.9-12.1
						c1.6-0.9,3.9-1,5.3-0.2l100.6,58.1c0.8,0.5,1.2,1.2,1.2,1.9c0,0.9-0.6,1.7-1.6,2.3l-20.9,12.1c-0.9,0.5-1.9,0.7-3,0.7
						C167.5,262.9,166.6,262.7,166,262.3z M87.6,189.6l-20.9,12.1c-0.5,0.3-0.6,0.5-0.6,0.6c0,0,0.1,0.1,0.3,0.2L167,260.6v0
						c0.8,0.5,2.4,0.4,3.4-0.2l20.9-12.1c0.5-0.3,0.6-0.5,0.6-0.6c0,0-0.1-0.1-0.3-0.2L91,189.4c-0.4-0.2-0.9-0.3-1.4-0.3
						C88.9,189.1,88.1,189.3,87.6,189.6z"/>
					<g>

							<linearGradient id="SVGID_15_" gradientUnits="userSpaceOnUse" x1="273.7443" y1="-4.1706" x2="394.3817" y2="-4.1706" gradientTransform="matrix(-0.866 -0.5 0 1.1547 430.9803 356.8974)">
							<stop  offset="0" style="stop-color:#5761D7"/>
							<stop  offset="0.1779" style="stop-color:#5C66D9"/>
							<stop  offset="0.3876" style="stop-color:#6A73DF"/>
							<stop  offset="0.6134" style="stop-color:#8289E8"/>
							<stop  offset="0.849" style="stop-color:#A3A7F5"/>
							<stop  offset="1" style="stop-color:#BCBEFF"/>
						</linearGradient>
						<path class="st22" d="M106.3,154.3c2.6,1.5,5.1,3.7,7.4,6.2c3.1-9.9,12.5-13,23.7-6.6c9.2,5.3,17.3,15.8,21.5,26.9
							c1.4,0,3,0.5,4.6,1.5c6,3.5,10.9,11.9,10.9,18.9c0,0.1,0,0.3,0,0.4c1.7,0.1,3.6,0.7,5.6,1.9c7.7,4.4,13.9,15.3,13.9,24.1
							c0,8.9-6.2,12.5-13.9,8l-73.7-42.5c-9.3-5.4-16.8-18.4-16.8-29.2S97,148.9,106.3,154.3z"/>

							<radialGradient id="SVGID_16_" cx="388.8536" cy="183.8505" r="49.835" fx="341.8571" fy="167.2717" gradientTransform="matrix(-1 0 0 1 558.2191 0)" gradientUnits="userSpaceOnUse">
							<stop  offset="0" style="stop-color:#2B237C"/>
							<stop  offset="1" style="stop-color:#180D5B"/>
						</radialGradient>
						<path class="st23" d="M106.3,154.3c1.5,0.9,3,2,4.4,3.2l8.2-4.8l0,0c4.5-3.2,11.1-3,18.4,1.2c9.2,5.3,17.3,15.8,21.5,26.9
							c1.4,0,3,0.5,4.6,1.5c6,3.5,10.9,11.9,10.9,18.9c0,0.1,0,0.3,0,0.4c1.7,0.1,3.6,0.7,5.6,1.9c7.7,4.4,13.9,15.3,13.9,24.1
							c0,4.4-1.5,7.5-4,9l0,0l-0.1,0c0,0,0,0,0,0l-20.2,11.7l-4.4-21.2l-59-34c-9.3-5.4-16.8-18.4-16.8-29.2
							C89.4,153.3,97,148.9,106.3,154.3z"/>

							<linearGradient id="SVGID_17_" gradientUnits="userSpaceOnUse" x1="364.3013" y1="199.504" x2="484.3866" y2="199.504" gradientTransform="matrix(-1 0 0 1 558.2191 0)">
							<stop  offset="0" style="stop-color:#5761D7"/>
							<stop  offset="0.1779" style="stop-color:#5C66D9"/>
							<stop  offset="0.3876" style="stop-color:#6A73DF"/>
							<stop  offset="0.6134" style="stop-color:#8289E8"/>
							<stop  offset="0.849" style="stop-color:#A3A7F5"/>
							<stop  offset="1" style="stop-color:#BCBEFF"/>
						</linearGradient>
						<path class="st24" d="M73.8,165.1l20.5-11.9l0,0c3.1-1.8,7.3-1.6,12,1.1c1.5,0.9,3,2,4.4,3.2l8.2-4.8l0,0
							c4.5-3.2,11.1-3,18.4,1.2c9.2,5.3,17.3,15.8,21.5,26.9c1.4,0,3,0.5,4.6,1.5c6,3.5,10.9,11.9,10.9,18.9c0,0.1,0,0.3,0,0.4
							c1.7,0.1,3.6,0.7,5.6,1.9c7.7,4.4,13.9,15.3,13.9,24.1c0,4.4-1.5,7.5-4,9l0,0l-0.1,0c0,0,0,0,0,0l-20.2,11.7l-4.4-21.2l-59-34
							c-7.5-4.4-13.9-13.8-16.1-22.9L73.8,165.1z"/>

							<linearGradient id="SVGID_18_" gradientUnits="userSpaceOnUse" x1="297.1288" y1="16.1349" x2="417.7662" y2="16.1349" gradientTransform="matrix(-0.866 -0.5 0 1.1547 430.9803 356.8974)">
							<stop  offset="0" style="stop-color:#C0BFF6"/>
							<stop  offset="0.2938" style="stop-color:#C5C4F7"/>
							<stop  offset="0.6399" style="stop-color:#D3D2F9"/>
							<stop  offset="1" style="stop-color:#E9E9FD"/>
						</linearGradient>
						<path class="st25" d="M86,166.1c2.6,1.5,5.1,3.7,7.4,6.2c3.1-9.9,12.5-13,23.7-6.6c9.2,5.3,17.3,15.8,21.5,26.9
							c1.4,0,3,0.5,4.6,1.5c6,3.5,10.9,11.9,10.9,18.9c0,0.1,0,0.3,0,0.4c1.7,0.1,3.6,0.7,5.6,1.9c7.7,4.4,13.9,15.3,13.9,24.1
							c0,8.9-6.2,12.5-13.9,8L86,204.9c-9.3-5.4-16.8-18.4-16.8-29.2C69.2,165,76.7,160.7,86,166.1z"/>
						<g>
							<path class="st11" d="M92.7,172.7c-2.2-2.5-4.7-4.7-7.4-6.2c-4.5-2.6-8.7-2.9-11.7-1.3c3.1-2.1,7.5-1.9,12.4,0.9
								c2.5,1.4,4.9,3.4,7,5.8C92.9,172.1,92.8,172.4,92.7,172.7z"/>
							<path class="st11" d="M173,239.8c0-8.9-6.2-19.7-13.9-24.1c-2-1.2-3.9-1.8-5.6-1.9c0-0.1,0-0.3,0-0.4c0-7-4.9-15.4-10.9-18.9
								c-1.7-1-3.2-1.4-4.6-1.5c-4.3-11.1-12.3-21.6-21.5-26.9c-6.7-3.9-12.9-4.3-17.3-1.8c4.5-2.9,10.9-2.7,18,1.4
								c9.2,5.3,17.3,15.8,21.5,26.9c1.4,0,3,0.5,4.6,1.5c6,3.5,10.9,11.9,10.9,18.9c0,0.1,0,0.3,0,0.4c1.7,0.1,3.6,0.7,5.6,1.9
								c7.7,4.4,13.9,15.3,13.9,24.1c0,4.6-1.6,7.7-4.3,9.1C171.6,247,173,244,173,239.8z"/>
						</g>
					</g>
				</g>

					<linearGradient id="SVGID_19_" gradientUnits="userSpaceOnUse" x1="326.4066" y1="270.1759" x2="377.8109" y2="270.1759" gradientTransform="matrix(-1 0 0 1 558.2191 0)">
					<stop  offset="0" style="stop-color:#5761D7"/>
					<stop  offset="7.257640e-002" style="stop-color:#5472D8"/>
					<stop  offset="0.2791" style="stop-color:#4E9CDB"/>
					<stop  offset="0.4801" style="stop-color:#49BDDD"/>
					<stop  offset="0.6715" style="stop-color:#45D5DF"/>
					<stop  offset="0.8493" style="stop-color:#43E3E0"/>
					<stop  offset="1" style="stop-color:#42E8E0"/>
				</linearGradient>
				<polygon class="st26" points="230,285.9 231.8,284.7 181.4,254.4 180.4,256.1 				"/>
			</g>

				<linearGradient id="SVGID_20_" gradientUnits="userSpaceOnUse" x1="209.5497" y1="252.6634" x2="275.2289" y2="252.6634" gradientTransform="matrix(-1 0 0 1 558.2191 0)">
				<stop  offset="0" style="stop-color:#42E8E0"/>
				<stop  offset="0.1507" style="stop-color:#43E3E0"/>
				<stop  offset="0.3285" style="stop-color:#45D5DF"/>
				<stop  offset="0.5199" style="stop-color:#49BDDD"/>
				<stop  offset="0.7209" style="stop-color:#4E9CDB"/>
				<stop  offset="0.9274" style="stop-color:#5472D8"/>
				<stop  offset="1" style="stop-color:#5761D7"/>
			</linearGradient>
			<path class="st27" d="M303.2,284.3c-0.4,0-0.7-0.2-0.9-0.5c-0.3-0.5-0.1-1.1,0.4-1.4l42.9-23.3l-62.2-36.2
				c-0.5-0.3-0.6-0.9-0.4-1.4c0.3-0.5,0.9-0.6,1.4-0.4l63.7,37.1c0.3,0.2,0.5,0.5,0.5,0.9c0,0.4-0.2,0.7-0.5,0.9l-44.5,24.1
				C303.5,284.2,303.4,284.3,303.2,284.3z"/>
			<g>
				<g>
					<g>
						<linearGradient id="SVGID_21_" gradientUnits="userSpaceOnUse" x1="194.9856" y1="305.2815" x2="342.3606" y2="305.2815">
							<stop  offset="0" style="stop-color:#42E8E0"/>
							<stop  offset="0.1507" style="stop-color:#43E3E0"/>
							<stop  offset="0.3285" style="stop-color:#45D5DF"/>
							<stop  offset="0.5199" style="stop-color:#49BDDD"/>
							<stop  offset="0.7209" style="stop-color:#4E9CDB"/>
							<stop  offset="0.9274" style="stop-color:#5472D8"/>
							<stop  offset="1" style="stop-color:#5761D7"/>
						</linearGradient>
						<path class="st28" d="M268.7,348.2c-0.2,0-0.3,0-0.5-0.1l-72.7-42c-0.3-0.2-0.5-0.5-0.5-0.9c0-0.4,0.2-0.7,0.5-0.9l72.7-42
							c0.3-0.2,0.7-0.2,1,0l72.7,42c0.3,0.2,0.5,0.5,0.5,0.9c0,0.4-0.2,0.7-0.5,0.9l-72.7,42C269,348.2,268.8,348.2,268.7,348.2z
							 M198,305.3l70.7,40.8l70.7-40.8l-70.7-40.8L198,305.3z"/>

							<linearGradient id="SVGID_22_" gradientUnits="userSpaceOnUse" x1="275.9923" y1="326.9715" x2="303.0993" y2="283.5912" gradientTransform="matrix(-1 0 0 1 558.2191 0)">
							<stop  offset="0" style="stop-color:#42E8E0"/>
							<stop  offset="0.1507" style="stop-color:#43E3E0"/>
							<stop  offset="0.3285" style="stop-color:#45D5DF"/>
							<stop  offset="0.5199" style="stop-color:#49BDDD"/>
							<stop  offset="0.7209" style="stop-color:#4E9CDB"/>
							<stop  offset="0.9274" style="stop-color:#5472D8"/>
							<stop  offset="1" style="stop-color:#5761D7"/>
						</linearGradient>
						<polygon class="st29" points="268.7,333.1 316.9,305.3 268.7,277.4 220.4,305.3 						"/>
					</g>
					<g>
						<path class="st30" d="M256.4,289.6c0,0-0.8,0.8-1.7,1.8s-3.2,2.3-4.3,2.9s-5.6,3.9-6.6,7.3c-1,3.4,2.2,3.9,5.5,3.4
							c3.3-0.5,6.5-3.5,7.4-4.6c0.9-1.1,4.1-3.5,8.2-5.5c4.1-2,1.7-4.9,1.7-4.9L256.4,289.6z"/>
						<path class="st30" d="M286.3,300.4c0,0,0.6,1.5,0.8,3.5c0.1,2,0.3,6.2,0.4,7.4c0.1,1.2,0,4.3-2.2,7.1c-2.3,2.8-3.4,4-6.3,2.8
							c-2.9-1.2-2.7-6.1-2.1-8.6c0.6-2.5,1.2-8.1,1.2-8.7c0-0.6,0.2-1,0.2-1L286.3,300.4z"/>
						<path class="st6" d="M247.8,231.9c0,0,0.1,22.3,5,34.3c0,0,3.5,10.5,3.6,22.9c0,0-0.9,2.1,0.3,3.9c1.2,1.8,8.8,3.5,10.2-2.1
							c1.4-5.7,1.2-16.4-0.1-20.9c-1.3-4.5,0.9-16.7,0.9-16.7s2.1,1.4,4.6,10.3c2.5,8.9,4.4,12.3,5.3,14.8
							c0.9,2.5,1.4,17.4,0.6,24.7c0,0,6.2,1,8-1.9c1.9-2.9,2.8-18.2,2.5-23.1c-0.3-4.9-2-20.6-1.6-25.4c0.4-4.8,1.5-8.7,0.5-13.6
							c-1-4.9-33.3-16.4-33.3-16.4L247.8,231.9z"/>
						<path class="st30" d="M287.1,252.8c0.4-4.8,1.5-8.7,0.5-13.6c-0.4-1.8-5.2-4.6-11-7.3c-10-1.2-22.6-2.5-23.5-2.4
							c-0.8,0.1-2.9,0.8-4.6,1.5l-0.7,1c0,0,0,1.4,0.1,3.6c2.3,0.8,6.8,0.1,6.8,0.1c0.6,1.6,4.3,7.2,9.1,9.8c4.8,2.5,19,2,19.8,3
							c0.8,0.9,0.6,13.2,0.5,14.7c-0.1,1.6,1.1,11.4,2.2,20c1.1,8.5-1.1,18.8-1.2,19.2c0.5-0.3,0.9-0.6,1.2-1.1
							c1.9-2.9,2.8-18.2,2.5-23.1C288.3,273.3,286.7,257.6,287.1,252.8z"/>
						<path class="st8" d="M260.5,159.2c0,0-7.3,1.5-9.7,2c-0.4,0.1-0.7,0.4-0.9,0.7c-0.7,1.8-2.6,7.2-1.5,15.4
							c1.4,10,0.7,16.6,0.7,16.6l-3.8,17.3c0,0-4.6,16.5-4.3,17c0.4,0.5,9.5,7.8,12.4,6.9c2.9-0.9,2-2.6,2-2.6s2.1,12.1,12.5,12.2
							c10.5,0.1,19,0.4,20.9-3.8c1.9-4.2,0.1-22-1.6-29.1c-1.7-7.1-5.7-21.2-5.7-21.2l15.7-16.6l-12.8-10.3c0,0-3-5.9-4.2-6.7
							c-1.3-0.8-2-0.2-2-0.2L260.5,159.2z"/>
						<g>

								<linearGradient id="SVGID_23_" gradientUnits="userSpaceOnUse" x1="651.2737" y1="263.4772" x2="665.201" y2="263.4772" gradientTransform="matrix(0.9966 8.260000e-002 -8.260000e-002 0.9966 -386.2318 -85.0318)">
								<stop  offset="0" style="stop-color:#5761D7"/>
								<stop  offset="7.257640e-002" style="stop-color:#5472D8"/>
								<stop  offset="0.2791" style="stop-color:#4E9CDB"/>
								<stop  offset="0.4801" style="stop-color:#49BDDD"/>
								<stop  offset="0.6715" style="stop-color:#45D5DF"/>
								<stop  offset="0.8493" style="stop-color:#43E3E0"/>
								<stop  offset="1" style="stop-color:#42E8E0"/>
							</linearGradient>
							<path class="st31" d="M253.7,231.3c0,0.6-0.4,1.5-2.3,2.1c-2,0.6-6.9-2.5-10.2-4.9c1.6,1.4,9.5,7.4,12.2,6.6
								c0.6-0.2,1-0.4,1.3-0.6C254.2,233.1,253.9,232,253.7,231.3z"/>

								<linearGradient id="SVGID_24_" gradientUnits="userSpaceOnUse" x1="670.9627" y1="267.9953" x2="700.1012" y2="267.9953" gradientTransform="matrix(0.9966 8.260000e-002 -8.260000e-002 0.9966 -386.2318 -85.0318)">
								<stop  offset="0" style="stop-color:#5761D7"/>
								<stop  offset="7.257640e-002" style="stop-color:#5472D8"/>
								<stop  offset="0.2791" style="stop-color:#4E9CDB"/>
								<stop  offset="0.4801" style="stop-color:#49BDDD"/>
								<stop  offset="0.6715" style="stop-color:#45D5DF"/>
								<stop  offset="0.8493" style="stop-color:#43E3E0"/>
								<stop  offset="1" style="stop-color:#42E8E0"/>
							</linearGradient>
							<path class="st32" d="M288.8,239.5c-2,4.4-11,4.2-22,4c-2.8,0-5-0.9-6.8-2.1c1.9,1.9,4.4,3.3,8,3.3c10.5,0.1,19,0.4,20.9-3.8
								c0.6-1.4,0.8-4.2,0.8-7.7C289.6,236.1,289.4,238.3,288.8,239.5z"/>
						</g>
						<path class="st33" d="M279.9,156.9c0,0,2.6,3.3-1.4,7.6c-2.4,2.6-6.7,8.3-10.3,14.3c-2.3,3.7-4.3,5.7-5.5,8.9
							c0,0-0.1-3.8-0.1-9.8c0-5.6,0.1-11.4,0.4-12.9C263.6,162,277,155.4,279.9,156.9z"/>
						<path class="st34" d="M269.7,166.4c0,0-1.4,0.8-1.9,0.7c-0.5-0.1-2-1.6-2-1.6s-3.8-0.2-4.2-1.8c-0.4-1.6-0.6-3.3-1-4.1
							c-0.4-0.9-1.9-5-1.9-6.6c0-1.6,0.2-4.6-0.5-6.2c-0.7-1.6-1.2-17.2,13.8-16.4c15,0.8,10,16.3,10,16.3s1.1,0.5,0.4,2.5
							c-0.7,2-0.9,2.2-1.2,3.2c-0.4,1-0.5,1.6-1.5,2.4l-0.3,1.8c0,0,0.6,2.8-1.3,5.5C276.2,165,269.7,166.4,269.7,166.4z"/>
						<path class="st6" d="M250.4,161.4c0,0-1.6,0.2-7.1,13.2c-3.1,7.2-7.8,14.7-8.8,20.1c-1.1,5.4-0.7,11.2,0.4,11.7
							c1,0.4,19.5,7.9,25.3,10.2c0.3,0.1,0.7-0.1,0.7-0.4l1.8-9l-11.5-4.8c0,0-2.1-2.8-4.2-3.8c0,0,2.4-4.2,2.3-5.4
							c-0.1-1.2,0.5-13.3-0.7-18.2C247.4,169.9,250.4,161.4,250.4,161.4z"/>
						<path class="st34" d="M256.3,196.1c0,0-1.6-1.1-2-1.3c-0.4-0.2-2.5-0.9-2.9-1.1c-0.3-0.1-1.5-0.1-2.2,0
							c-0.2,0-0.4,0.1-0.5,0.3c-0.5,0.9-2,3.5-1.8,4.6c0,0,3.8,2.5,4.2,3.6l0.6,0.1C251.7,202.4,254.4,196.9,256.3,196.1z"/>
						<path class="st6" d="M287.3,211.8c-0.4-1.7-0.9-3.8-1.5-6l-23.7,9.5c0,0,6.8,8.8,19.2,8.6c3.4-0.1,5.9-1.2,7.7-2.2
							C288.4,217.8,287.8,214.2,287.3,211.8z"/>
						<path class="st6" d="M297.3,174.1c0,0-6.2,0.7-11.4,8.5c-5.2,7.8-9.1,16.9-9.1,16.9l-0.2,1c-0.5,2.7-3.4,4.2-5.9,3
							c-5.2-2.5-13-6.3-14.4-7.4c0,0-4.7,2.5-6.2,8.6c-1.1,4.9-0.9,4.9-0.9,4.9s20.6,10.3,28.7,10.4c8.1,0.1,18.9-26.1,20.2-31.6
							S300.8,175.7,297.3,174.1z"/>
						<path class="st35" d="M297.3,174.1c0,0-6.2,0.7-11.4,8.5c-5.2,7.8-9.1,16.9-9.1,16.9l-0.2,1c-0.5,2.7-3.4,4.2-5.9,3
							c-5.2-2.5-13-6.3-14.4-7.4c0,0-4.7,2.5-6.2,8.6c-1.1,4.9-0.9,4.9-0.9,4.9s20.6,10.3,28.7,10.4c8.1,0.1,18.9-26.1,20.2-31.6
							S300.8,175.7,297.3,174.1z"/>
						<path class="st8" d="M273.7,204.8c0,0,2.6,2.5,3.8,1.2c1.2-1.3,0.8-1.5,0.8-1.5s2.4,0,2.7-1.4c0.3-1.5,1.5-0.7,1.6-2.3
							c0.1-1.7-1.9-1.4-1.9-1.4L273.7,204.8z"/>
						<path class="st34" d="M270.5,203.4c0,0,0.7-0.7,1.7-1.4c1-0.8,2.5-4,2.8-4.3c0.3-0.3,3.5-2.6,5-2.6c1.5,0,0.3,1.7,0,1.9
							c-0.4,0.2-1.9,0.9-1.9,0.9s-1.6,1.2-1.7,1.4c-0.2,0.2,4.2-0.2,4.9,0.2c0.7,0.4,0.5,1.6,0,1.9c-0.5,0.3-0.9,0.3-0.9,0.3
							s0.5,1.3-0.9,1.9c-1.3,0.6-1.6,0.2-1.6,0.2s-0.2,2.3-2.3,1.8L270.5,203.4z"/>
						<path class="st36" d="M258.2,138.9c0,0-2.1,6.2,3.1,4.6c5.2-1.7,10-4.5,11.6-3.3c1.2,0.9,1.1,3.5,1,4.7c0,0.4,0.1,0.8,0.3,1.2
							l1.5,2.3c0.2,0.3,0.3,0.6,0.3,0.9l0.1,1.6c0,0.4,0.3,0.7,0.7,0.7l0.4,0c0.4,0,0.7-0.2,0.8-0.6l0.5-2.3c0,0,1.3-3,3.8-1.8
							c0,0,1.8-2.3,1.3-7.2c-0.4-5-2.5-10.1-12.2-11.2C261.6,127.3,258.2,138.9,258.2,138.9z"/>
						<path class="st37" d="M272.2,172l-1.4-1.2c0,0-1.4,1.1-1.9,2.3c-0.6,1.2-0.1,4.9-0.1,4.9l-0.5,0.7l-0.5-1l-0.3-4.5
							c0,0,0.6-3.3,0.6-3.4c0.1-0.1,2.8,0.4,2.8,0.4S271.8,171.1,272.2,172z"/>
						<path class="st37" d="M265.4,167.4c0,0-1.6,0.1-2.3,0.6c0,0,1.6,0.1,1.9,0.2C265.2,168.2,265.4,167.4,265.4,167.4z"/>
						<path class="st6" d="M268.3,167.8l2.5,2.5c0,0-2.3,1-3,3c0,0-2.8,0.5-3.1-0.6c-0.2-1,0.1-3.6-0.2-4.8
							C264.2,166.8,268.3,167.8,268.3,167.8z"/>
						<path class="st6" d="M264.9,172.7c0,0-0.5,2.1-1.1,3c-0.5,0.9-1.1,1.8-1.1,1.8l-0.2,12.5c0,0,4.8-9.3,5.9-11.2
							c0,0,0-4.6-0.5-5.4C267.4,172.5,264.9,172.7,264.9,172.7z"/>
						<path class="st38" d="M277.7,154.6c-3.2,8.6-11.8,11-11.8,11s1.5,1.5,2,1.6c0.5,0.1,1.9-0.7,1.9-0.7s6.5-1.4,8.5-4.1
							c1.9-2.7,1.3-5.5,1.3-5.5l0.3-1.8C278.4,155.3,277.7,154.6,277.7,154.6z"/>
						<path class="st6" d="M284.3,164.9c0,0-1.3,4.1-1.4,4.2s-3-0.2-3-0.2l1.3,2.6c0,0-14.7,15-17.8,23.1c0,0,7-10.3,19.2-22.4
							l-1.6-2.6l2.9,0.6L284.3,164.9z"/>
						<path class="st6" d="M260.9,160.7l-0.8,0.8l0.9,0.9l-2.7,2.3c0,0-1.2,16.7,1.7,27.9c0,0-4.1-10.3-2.7-28.4l2.9-1.9l-0.9-0.9
							L260.9,160.7z"/>
						<path class="st30" d="M267.6,253.4C267.6,253.4,267.7,253.4,267.6,253.4l-3.5-3.9c1.6,2.5-0.6,13.4-0.9,15.9
							c-0.3,2.5,1.8,7.8,2.4,13.9c0.7,6.1-1.2,14.8-1.2,14.8c1.1-0.6,1.9-1.6,2.3-3.2c1.4-5.7,1.2-16.4-0.1-20.9
							C265.5,265.6,267.6,253.4,267.6,253.4z"/>

							<linearGradient id="SVGID_25_" gradientUnits="userSpaceOnUse" x1="657.5748" y1="231.0512" x2="704.9671" y2="231.0512" gradientTransform="matrix(0.9966 8.260000e-002 -8.260000e-002 0.9966 -386.2318 -85.0318)">
							<stop  offset="0" style="stop-color:#5761D7"/>
							<stop  offset="7.257640e-002" style="stop-color:#5472D8"/>
							<stop  offset="0.2791" style="stop-color:#4E9CDB"/>
							<stop  offset="0.4801" style="stop-color:#49BDDD"/>
							<stop  offset="0.6715" style="stop-color:#45D5DF"/>
							<stop  offset="0.8493" style="stop-color:#43E3E0"/>
							<stop  offset="1" style="stop-color:#42E8E0"/>
						</linearGradient>
						<path class="st39" d="M277.9,219.9c8.1,0.1,18.9-26.1,20.2-31.6c0.2-0.9,0.4-1.9,0.6-2.8c0,0.1-2.3,5.7-4.4,10.8
							c-2.2,5.1-13.3,20.3-18.8,21.1c-5,0.8-22.6-8-26-9.7c-0.4,1.9-0.2,1.9-0.2,1.9S269.9,219.8,277.9,219.9z"/>
						<path class="st40" d="M277,151.5c0.4,0,0.7-0.2,0.8-0.6l0.5-2.3c0,0,1.3-3,3.8-1.8c0,0,1.7-2.2,1.4-6.8c-3,4.2-9.4,6-9.4,6
							l1.5,2.3c0.2,0.3,0.3,0.6,0.3,0.9l0.1,1.6c0,0.4,0.3,0.7,0.7,0.7L277,151.5z"/>
					</g>
				</g>
			</g>
		</g>
		<path class="st6" d="M208.1,38.1l46.7,27c2.2,1.3,3.9,4.6,3.9,7.5v44.5c0,2.9-1.8,4.2-3.9,3l-55.2-31.8L208.1,38.1z"/>
		<g>

				<linearGradient id="SVGID_26_" gradientUnits="userSpaceOnUse" x1="315.6133" y1="89.3437" x2="394.3476" y2="23.2778" gradientTransform="matrix(-1 0 0 1 558.2191 0)">
				<stop  offset="0" style="stop-color:#5761D7"/>
				<stop  offset="0.1779" style="stop-color:#5C66D9"/>
				<stop  offset="0.3876" style="stop-color:#6A73DF"/>
				<stop  offset="0.6134" style="stop-color:#8289E8"/>
				<stop  offset="0.849" style="stop-color:#A3A7F5"/>
				<stop  offset="1" style="stop-color:#BCBEFF"/>
			</linearGradient>
			<path class="st41" d="M164.8,12.7l2.3-1.6v0c0.7-0.5,1.7-0.6,2.8,0.1l79.5,45.9c2.2,1.3,3.9,4.6,3.9,7.5v44.5
				c0,1.5-0.5,2.6-1.3,3.1l0,0l-2.4,1.7l-0.1-1.7c-0.1,0-0.1-0.1-0.2-0.1l-79.5-45.9c-2.2-1.3-3.9-4.6-3.9-7.5V14.1
				c0-0.4,0-0.8,0.1-1.2L164.8,12.7z"/>

				<linearGradient id="SVGID_27_" gradientUnits="userSpaceOnUse" x1="314.0222" y1="69.5926" x2="322.6222" y2="62.3764" gradientTransform="matrix(-1 0 0 1 558.2191 0)">
				<stop  offset="0" style="stop-color:#C0BFF6"/>
				<stop  offset="0.2938" style="stop-color:#C5C4F7"/>
				<stop  offset="0.6399" style="stop-color:#D3D2F9"/>
				<stop  offset="1" style="stop-color:#E9E9FD"/>
			</linearGradient>
			<path class="st42" d="M253,62.8l-21,12.1l-5.3-3l23.8-13.8C251.7,59.3,252.7,61,253,62.8z"/>

				<linearGradient id="SVGID_28_" gradientUnits="userSpaceOnUse" x1="426.7039" y1="403.4734" x2="426.7039" y2="355.8163" gradientTransform="matrix(-0.866 -0.5 0 1.1547 576.7318 -161.6995)">
				<stop  offset="0" style="stop-color:#C0BFF6"/>
				<stop  offset="0.2938" style="stop-color:#C5C4F7"/>
				<stop  offset="0.6399" style="stop-color:#D3D2F9"/>
				<stop  offset="1" style="stop-color:#E9E9FD"/>
			</linearGradient>
			<path class="st43" d="M167.5,67.9l79.5,45.9c2.2,1.3,3.9-0.1,3.9-3V66.3c0-2.9-1.8-6.3-3.9-7.5l-79.5-45.9
				c-2.2-1.3-3.9,0.1-3.9,3v44.5C163.5,63.3,165.3,66.6,167.5,67.9z"/>
			<path class="st11" d="M250.4,111V66.5c0-2.9-1.8-6.3-3.9-7.5L167,13.1c-0.9-0.5-1.6-0.6-2.3-0.3c0.7-0.5,1.7-0.5,2.7,0.1
				l79.5,45.9c2.2,1.3,3.9,4.6,3.9,7.5v44.5c0,1.8-0.6,2.9-1.6,3.3C250,113.6,250.4,112.5,250.4,111z"/>
			<path class="st44" d="M174.8,39.9l64.9,37.4c0.5,0.3,0.9,0.4,1.2,0c0-0.1,0-0.2,0-0.3v-9.8c0-0.8-0.5-1.7-1-2l-65.4-37.7
				c-0.1,0-0.1-0.1-0.2-0.1c-0.5,0.1-0.5,0.5-0.5,1.2l-0.2,9.4C173.7,38.8,174.3,39.5,174.8,39.9z"/>
			<path class="st44" d="M174.7,61.2l65,37.4c0.5,0.3,1.1,0.6,1.2,0c0-0.1,0-0.2,0-0.3v-9.8c0-0.8-0.5-1.7-1-2l-65.4-37.7
				c-0.1,0-0.1-0.1-0.2-0.1c-0.5-0.2-0.6,0.5-0.6,1.2l0,9.3C173.7,60,174.1,60.9,174.7,61.2z"/>
			<path class="st11" d="M174.4,27.4c0,0.1,0,0.2,0,0.3v9.8c0,0.8,0.5,1.7,1,2l65.4,37.7c0.1,0,0.1,0,0.2,0.1
				c-0.1,0.6-0.5,0.8-1,0.5L174.5,40c-0.6-0.3-1-1.2-1-2v-9.8C173.5,27.5,173.9,27.2,174.4,27.4z"/>
			<path class="st11" d="M174.4,48.8c0,0.1,0,0.2,0,0.3v9.8c0,0.8,0.5,1.7,1,2l65.4,37.7c0.1,0,0.1,0,0.2,0.1
				c-0.1,0.6-0.5,0.8-1,0.5l-65.4-37.7c-0.6-0.3-1-1.2-1-2v-9.8C173.5,49,173.9,48.6,174.4,48.8z"/>
			<g>
				<g>
					<path class="st11" d="M222.2,62.6l-0.8,1.5l-1.5-1.9l1.2-1.2l-1.7-1.8l0.6-1.5l1.6,1.9l-0.2-2.3l1.9,1.1l-0.2,2l1.6-0.1
						l0.6,2.1l-1.7-0.2l1.1,2.5l-1.5,0.2L222.2,62.6z"/>
				</g>
				<g>
					<path class="st11" d="M214.7,58.3l-0.8,1.5l-1.5-1.9l1.2-1.2l-1.7-1.8l0.6-1.5l1.6,1.9l-0.2-2.3l1.9,1.1l-0.2,2l1.6-0.1
						l0.6,2.1l-1.7-0.2l1.1,2.5l-1.5,0.2L214.7,58.3z"/>
				</g>
				<g>
					<path class="st11" d="M207.2,53.9l-0.8,1.5l-1.5-1.9l1.2-1.2l-1.7-1.8l0.6-1.5l1.6,1.9l-0.2-2.3l1.9,1.1l-0.2,2l1.6-0.1
						l0.6,2.1l-1.7-0.2l1.1,2.5l-1.5,0.2L207.2,53.9z"/>
				</g>
				<g>
					<path class="st11" d="M199.7,49.6l-0.8,1.5l-1.5-1.9l1.2-1.2l-1.7-1.8l0.6-1.5l1.6,1.9l-0.2-2.3l1.9,1.1l-0.2,2l1.6-0.1
						l0.6,2.1l-1.7-0.2l1.1,2.5l-1.5,0.2L199.7,49.6z"/>
				</g>
				<g>
					<path class="st11" d="M192.2,45.3l-0.8,1.5l-1.5-1.9l1.2-1.2l-1.7-1.8l0.6-1.5l1.6,1.9l-0.2-2.3l1.9,1.1l-0.2,2l1.6-0.1
						l0.6,2.1l-1.7-0.2l1.1,2.5l-1.5,0.2L192.2,45.3z"/>
				</g>
			</g>
			<g>
				<g>
					<path class="st11" d="M222.2,84l-0.8,1.5l-1.5-1.9l1.2-1.2l-1.7-1.8l0.6-1.5l1.6,1.9l-0.2-2.3l1.9,1.1l-0.2,2l1.6-0.1l0.6,2.1
						l-1.7-0.2l1.1,2.5l-1.5,0.2L222.2,84z"/>
				</g>
				<g>
					<path class="st11" d="M214.7,79.7l-0.8,1.5l-1.5-1.9l1.2-1.2l-1.7-1.8l0.6-1.5l1.6,1.9l-0.2-2.3l1.9,1.1l-0.2,2l1.6-0.1
						l0.6,2.1l-1.7-0.2L217,82l-1.5,0.2L214.7,79.7z"/>
				</g>
				<g>
					<path class="st11" d="M207.2,75.4l-0.8,1.5l-1.5-1.9l1.2-1.2l-1.7-1.8l0.6-1.5l1.6,1.9l-0.2-2.3l1.9,1.1l-0.2,2l1.6-0.1
						l0.6,2.1l-1.7-0.2l1.1,2.5l-1.5,0.2L207.2,75.4z"/>
				</g>
				<g>
					<path class="st11" d="M199.7,71l-0.8,1.5l-1.5-1.9l1.2-1.2l-1.7-1.8l0.6-1.5l1.6,1.9l-0.2-2.3l1.9,1.1l-0.2,2l1.6-0.1l0.6,2.1
						l-1.7-0.2l1.1,2.5l-1.5,0.2L199.7,71z"/>
				</g>
				<g>
					<path class="st11" d="M192.2,66.7l-0.8,1.5l-1.5-1.9l1.2-1.2l-1.7-1.8l0.6-1.5l1.6,1.9l-0.2-2.3l1.9,1.1l-0.2,2l1.6-0.1
						l0.6,2.1l-1.7-0.2l1.1,2.5l-1.5,0.2L192.2,66.7z"/>
				</g>
			</g>
		</g>
	</g>
	<polygon class="st45" points="189.4,285.6 179.5,291.3 169.6,285.6 179.5,279.9 	"/>
	<polygon class="st46" points="222.4,241.1 212.5,246.8 202.6,241.1 212.5,235.4 	"/>
	<polygon class="st46" points="178.4,89.2 168.5,94.9 158.6,89.2 168.5,83.5 	"/>
	<polygon class="st45" points="233.5,260.2 223.5,265.9 213.6,260.2 223.5,254.4 	"/>
	<polygon class="st45" points="354.5,228.4 344.6,234.1 334.7,228.4 344.6,222.7 	"/>
	<polygon class="st45" points="121.2,138.9 111.3,144.6 101.4,138.9 111.3,133.2 	"/>
	<polygon class="st45" points="361.2,138.7 351.3,144.5 341.4,138.7 351.3,133 	"/>
	<polygon class="st46" points="56.2,148.9 46.3,154.7 36.4,148.9 46.3,143.2 	"/>
	<g>
		<linearGradient id="SVGID_29_" gradientUnits="userSpaceOnUse" x1="48.2396" y1="101.1305" x2="135.3792" y2="101.1305">
			<stop  offset="0" style="stop-color:#42E8E0"/>
			<stop  offset="0.1507" style="stop-color:#43E3E0"/>
			<stop  offset="0.3285" style="stop-color:#45D5DF"/>
			<stop  offset="0.5199" style="stop-color:#49BDDD"/>
			<stop  offset="0.7209" style="stop-color:#4E9CDB"/>
			<stop  offset="0.9274" style="stop-color:#5472D8"/>
			<stop  offset="1" style="stop-color:#5761D7"/>
		</linearGradient>
		<path class="st47" d="M91.8,127.1c-0.3,0-0.6-0.1-0.9-0.2l-41.8-24.1c-0.6-0.3-0.9-0.9-0.9-1.6c0-0.6,0.3-1.2,0.9-1.6l41.8-24.1
			c0.6-0.3,1.3-0.3,1.8,0l41.8,24.1c0.6,0.3,0.9,0.9,0.9,1.6c0,0.6-0.3,1.2-0.9,1.6l-41.8,24.1C92.4,127,92.1,127.1,91.8,127.1z
			 M91.9,125.1L91.9,125.1L91.9,125.1z M50.4,101.1L91.8,125l41.4-23.9L91.8,77.2L50.4,101.1z"/>
		<linearGradient id="SVGID_30_" gradientUnits="userSpaceOnUse" x1="54.1907" y1="99.4564" x2="107.8025" y2="99.4564">
			<stop  offset="0.2473" style="stop-color:#5761D7"/>
			<stop  offset="0.4363" style="stop-color:#6C74DF"/>
			<stop  offset="0.8245" style="stop-color:#A2A6F5"/>
			<stop  offset="1" style="stop-color:#BCBEFF"/>
		</linearGradient>
		<polygon class="st48" points="129.4,92.4 129.4,84.8 91.8,105.6 54.2,84.8 54.2,92.4 91.8,114.1 		"/>
		<linearGradient id="SVGID_31_" gradientUnits="userSpaceOnUse" x1="54.1907" y1="84.8012" x2="129.4278" y2="84.8012">
			<stop  offset="0" style="stop-color:#C0BFF6"/>
			<stop  offset="0.2938" style="stop-color:#C5C4F7"/>
			<stop  offset="0.6399" style="stop-color:#D3D2F9"/>
			<stop  offset="1" style="stop-color:#E9E9FD"/>
		</linearGradient>
		<polygon class="st49" points="91.8,106.5 54.2,84.8 91.8,63.1 129.4,84.8 		"/>
		<polygon class="st50" points="91.8,105.9 54.7,84.5 54.2,84.8 91.8,106.5 129.4,84.8 128.9,84.5 		"/>
		<polygon class="st51" points="91.8,98.2 68.6,84.8 91.8,71.4 115.1,84.8 		"/>
		<g>
			<linearGradient id="SVGID_32_" gradientUnits="userSpaceOnUse" x1="68.5529" y1="84.8014" x2="115.0656" y2="84.8014">
				<stop  offset="0" style="stop-color:#42E8E0"/>
				<stop  offset="0.1507" style="stop-color:#43E3E0"/>
				<stop  offset="0.3285" style="stop-color:#45D5DF"/>
				<stop  offset="0.5199" style="stop-color:#49BDDD"/>
				<stop  offset="0.7209" style="stop-color:#4E9CDB"/>
				<stop  offset="0.9274" style="stop-color:#5472D8"/>
				<stop  offset="1" style="stop-color:#5761D7"/>
			</linearGradient>
			<polygon class="st52" points="91.8,98.2 68.6,84.8 91.8,71.4 115.1,84.8 			"/>
			<g>
				<linearGradient id="SVGID_33_" gradientUnits="userSpaceOnUse" x1="91.8089" y1="68.6958" x2="115.0656" y2="68.6958">
					<stop  offset="0" style="stop-color:#42E8E0"/>
					<stop  offset="0.1507" style="stop-color:#43E3E0"/>
					<stop  offset="0.3285" style="stop-color:#45D5DF"/>
					<stop  offset="0.5199" style="stop-color:#49BDDD"/>
					<stop  offset="0.7209" style="stop-color:#4E9CDB"/>
					<stop  offset="0.9274" style="stop-color:#5472D8"/>
					<stop  offset="1" style="stop-color:#5761D7"/>
				</linearGradient>
				<polygon class="st53" points="91.8,52.6 115.1,66 115.1,84.8 91.8,71.4 				"/>
				<linearGradient id="SVGID_34_" gradientUnits="userSpaceOnUse" x1="68.5529" y1="68.6956" x2="91.8096" y2="68.6956">
					<stop  offset="0" style="stop-color:#42E8E0"/>
					<stop  offset="0.1507" style="stop-color:#43E3E0"/>
					<stop  offset="0.3285" style="stop-color:#45D5DF"/>
					<stop  offset="0.5199" style="stop-color:#49BDDD"/>
					<stop  offset="0.7209" style="stop-color:#4E9CDB"/>
					<stop  offset="0.9274" style="stop-color:#5472D8"/>
					<stop  offset="1" style="stop-color:#5761D7"/>
				</linearGradient>
				<polygon class="st54" points="91.8,71.4 68.6,84.8 68.6,66 91.8,52.6 				"/>
				<linearGradient id="SVGID_35_" gradientUnits="userSpaceOnUse" x1="68.5529" y1="66.0172" x2="115.0656" y2="66.0172">
					<stop  offset="0" style="stop-color:#42E8E0"/>
					<stop  offset="0.1507" style="stop-color:#43E3E0"/>
					<stop  offset="0.3285" style="stop-color:#45D5DF"/>
					<stop  offset="0.5199" style="stop-color:#49BDDD"/>
					<stop  offset="0.7209" style="stop-color:#4E9CDB"/>
					<stop  offset="0.9274" style="stop-color:#5472D8"/>
					<stop  offset="1" style="stop-color:#5761D7"/>
				</linearGradient>
				<polygon class="st55" points="91.8,79.4 68.6,66 91.8,52.6 115.1,66 				"/>
				<linearGradient id="SVGID_36_" gradientUnits="userSpaceOnUse" x1="91.8096" y1="82.1228" x2="115.0656" y2="82.1228">
					<stop  offset="0" style="stop-color:#42E8E0"/>
					<stop  offset="0.1507" style="stop-color:#43E3E0"/>
					<stop  offset="0.3285" style="stop-color:#45D5DF"/>
					<stop  offset="0.5199" style="stop-color:#49BDDD"/>
					<stop  offset="0.7209" style="stop-color:#4E9CDB"/>
					<stop  offset="0.9274" style="stop-color:#5472D8"/>
					<stop  offset="1" style="stop-color:#5761D7"/>
				</linearGradient>
				<polygon class="st56" points="91.8,79.4 91.8,98.2 115.1,84.8 115.1,66 				"/>
			</g>
			<linearGradient id="SVGID_37_" gradientUnits="userSpaceOnUse" x1="68.5529" y1="82.1226" x2="91.8096" y2="82.1226">
				<stop  offset="0" style="stop-color:#42E8E0"/>
				<stop  offset="0.1507" style="stop-color:#43E3E0"/>
				<stop  offset="0.3285" style="stop-color:#45D5DF"/>
				<stop  offset="0.5199" style="stop-color:#49BDDD"/>
				<stop  offset="0.7209" style="stop-color:#4E9CDB"/>
				<stop  offset="0.9274" style="stop-color:#5472D8"/>
				<stop  offset="1" style="stop-color:#5761D7"/>
			</linearGradient>
			<polygon class="st57" points="68.6,66 68.6,84.8 91.8,98.2 91.8,79.4 			"/>
		</g>
	</g>
</g>
</svg>
